<svg xmlns="http://www.w3.org/2000/svg" width="19.002" height="22" viewBox="0 0 19.002 22">
  <g id="Group_475" data-name="Group 475" transform="translate(-847.998 -11.5)">
    <path data-name="Path 1817" d="M0,0V22" transform="translate(857.5 11.5)" fill="none" stroke="#81a3cc" stroke-width="1" id="middle-diff"/>
    <g id="Group_468" data-name="Group 468" transform="translate(832 -190)">
      <g id="Subtraction_19" data-name="Subtraction 19" transform="translate(17151 -97)" fill="none">
        <path d="M-17127.75,319H-17133a2.005,2.005,0,0,1-2-2V302a2,2,0,0,1,2-2h5.252v19Z" stroke="none"/>
        <path d="M -17128.75 318.0019226074219 L -17128.75 300.9988098144531 L -17133.001953125 300.9988098144531 C -17133.552734375 300.9988098144531 -17134.001953125 301.4472351074219 -17134.001953125 301.9984436035156 L -17134.001953125 316.9979553222656 C -17134.001953125 317.5515441894531 -17133.552734375 318.0019226074219 -17133.001953125 318.0019226074219 L -17128.75 318.0019226074219 M -17127.75 319.0019226074219 L -17127.751953125 319.0019226074219 L -17133.001953125 319.0019226074219 C -17134.103515625 319.0019226074219 -17135.001953125 318.1029357910156 -17135.001953125 316.9979553222656 L -17135.001953125 301.9984436035156 C -17135.001953125 300.8958435058594 -17134.103515625 299.9988098144531 -17133.001953125 299.9988098144531 L -17127.75 299.9988098144531 L -17127.75 319.0009155273438 L -17127.75 319.0019226074219 Z" stroke="none" fill="#81a3cc" id="left-diff"/>
      </g>
    </g>
    <g id="Group_469" data-name="Group 469" transform="translate(858.5 12.999)">
      <g id="Subtraction_19-2" data-name="Subtraction 19" transform="translate(8.502 19.003) rotate(180)" fill="none" stroke-dasharray="4 3">
        <path d="M7.25,19H2a2,2,0,0,1-2-2V2A2,2,0,0,1,2,0H7.25V19Z" stroke="none"/>
        <path d="M 7.250399589538574 19.00170135498047 L 7.249399662017822 19.00170135498047 L 3.250399589538574 19.00170135498047 L 3.250399589538574 18.00170135498047 L 6.250399589538574 18.00170135498047 L 6.250399589538574 17.2221508026123 L 7.250399589538574 17.2221508026123 L 7.250399589538574 19.00069999694824 L 7.250399589538574 19.00170135498047 Z M 0.4662635624408722 18.28193855285645 C 0.400343656539917 18.2029972076416 0.340353399515152 18.11888313293457 0.2870539128780365 18.03035926818848 C 0.2870539128780365 18.03035926818848 0.287031352519989 18.03032112121582 0.287031352519989 18.03032112121582 C 0.2865126430988312 18.02945899963379 0.2860540747642517 18.0286979675293 0.2855366170406342 18.02783393859863 C 0.2855080664157867 18.02778625488281 0.2854850292205811 18.02774810791016 0.285456508398056 18.02770042419434 C 0.2828691601753235 18.02338981628418 0.2803526818752289 18.0191593170166 0.2777970135211945 18.01482582092285 C 0.2777688205242157 18.01477813720703 0.2777529656887054 18.01475143432617 0.2777247726917267 18.01470375061035 C 0.2772775888442993 18.01394462585449 0.2767700552940369 18.01308441162109 0.2763238251209259 18.01232528686523 C 0.2762535214424133 18.01220512390137 0.2761937975883484 18.01210403442383 0.2761235237121582 18.01198387145996 C 0.2756774723529816 18.0112247467041 0.275270938873291 18.01053237915039 0.2748258411884308 18.0097713470459 C 0.2747557163238525 18.00965309143066 0.274690717458725 18.00954055786133 0.2746206223964691 18.00942230224609 C 0.2742074429988861 18.00871658325195 0.2737603783607483 18.0079517364502 0.2733480632305145 18.00724601745605 C 0.2732641100883484 18.00710105895996 0.2731883823871613 18.00697326660156 0.2731044590473175 18.00682830810547 C 0.2711389064788818 18.00345993041992 0.2691735625267029 18.00007057189941 0.2672271430492401 17.99669075012207 C 0.2671024799346924 17.99647331237793 0.2669860124588013 17.99627113342285 0.2668614387512207 17.99605369567871 C 0.2664849460124969 17.99539947509766 0.2661346793174744 17.99479103088379 0.2657589316368103 17.99413681030273 C 0.2656345963478088 17.99391937255859 0.2655108869075775 17.99370384216309 0.2653866410255432 17.99348640441895 C 0.2650423943996429 17.99288558959961 0.2646825909614563 17.99225807189941 0.2643389403820038 17.99165725708008 C 0.2641873359680176 17.99139213562012 0.2640563547611237 17.99116325378418 0.263904869556427 17.99089813232422 C 0.2635614573955536 17.99029731750488 0.263212263584137 17.98968505859375 0.2628694474697113 17.98908424377441 C 0.2627319693565369 17.98884201049805 0.2625983953475952 17.98860740661621 0.2624610066413879 17.98836708068848 C 0.2621184885501862 17.98776435852051 0.2617888748645782 17.98718452453613 0.2614469528198242 17.9865837097168 C 0.2612960934638977 17.98631858825684 0.2611638307571411 17.98608589172363 0.2610130906105042 17.98582077026367 C 0.2606403231620789 17.98516273498535 0.2602950036525726 17.98455238342285 0.2599229514598846 17.98389625549316 C 0.2598135471343994 17.98370361328125 0.259695291519165 17.98349380493164 0.2595859169960022 17.98330116271973 C 0.2591831386089325 17.98258781433105 0.2587580680847168 17.98183631896973 0.258356124162674 17.98112297058105 C 0.2581651508808136 17.98078536987305 0.2580111622810364 17.98051071166992 0.2578203976154327 17.98017311096191 C 0.2574806213378906 17.97956848144531 0.2571307420730591 17.97894668579102 0.2567915916442871 17.97834396362305 C 0.2566011548042297 17.97800445556641 0.2563860416412354 17.97762107849121 0.2561958134174347 17.97728157043457 C 0.2559185922145844 17.97678756713867 0.2556747198104858 17.97635269165039 0.2553978860378265 17.97585868835449 C 0.2551807761192322 17.97547149658203 0.2549488246440887 17.97505569458008 0.2547319531440735 17.97466850280762 C 0.2544862031936646 17.97422790527344 0.2542603611946106 17.97382545471191 0.2540149092674255 17.97338485717773 C 0.2537848055362701 17.97297286987305 0.2535729110240936 17.97259330749512 0.2533430755138397 17.9721794128418 C 0.2530978918075562 17.97174072265625 0.252858579158783 17.97130966186523 0.252613753080368 17.97086906433105 C 0.2523977160453796 17.97048187255859 0.2521625757217407 17.97005844116211 0.2519468069076538 17.96966934204102 C 0.2517022490501404 17.96922874450684 0.2514521479606628 17.96877861022949 0.2512078881263733 17.96833801269531 C 0.2509924173355103 17.96794891357422 0.2508030235767365 17.96760749816895 0.2505877614021301 17.96721839904785 C 0.2503437995910645 17.96677780151367 0.2500841021537781 17.96630859375 0.2498404532670975 17.96586608886719 C 0.2496120631694794 17.9654541015625 0.2493802160024643 17.96503448486328 0.2491521090269089 17.96462059020996 C 0.2489392012357712 17.96423530578613 0.2487401515245438 17.9638729095459 0.2485274970531464 17.96348571777344 C 0.248286247253418 17.96304893493652 0.2480423748493195 17.96260643005371 0.2478014528751373 17.96216773986816 C 0.2476194202899933 17.96183586120605 0.247388482093811 17.96141624450684 0.2472066432237625 17.96108436584473 C 0.246711939573288 17.96018218994141 0.2462070882320404 17.95926094055176 0.2457137405872345 17.95835876464844 C 0.2455324083566666 17.95802688598633 0.2453339695930481 17.95766448974609 0.2451528161764145 17.95733451843262 C 0.2448597848415375 17.95679664611816 0.2445727288722992 17.95627021789551 0.2442801743745804 17.95573425292969 C 0.244159609079361 17.95551300048828 0.2439720332622528 17.95516777038574 0.2438515573740005 17.95494651794434 C 0.2435592263936996 17.95441055297852 0.2432352006435394 17.95381355285645 0.2429433465003967 17.95327568054199 C 0.242793008685112 17.95299911499023 0.2426373064517975 17.95271301269531 0.2424870878458023 17.95243644714355 C 0.2421955019235611 17.9518985748291 0.2419107407331467 17.95137405395508 0.2416196465492249 17.95083618164062 C 0.24146968126297 17.95055770874023 0.2413206249475479 17.95028305053711 0.2411707937717438 17.95000648498535 C 0.2408799231052399 17.9494686126709 0.2405720800161362 17.94889831542969 0.2402816861867905 17.94836044311523 C 0.2401321083307266 17.94808197021484 0.2400075197219849 17.94785118103027 0.2398580610752106 17.94757461547852 C 0.2395415306091309 17.94698715209961 0.2392323464155197 17.94641304016113 0.2389163970947266 17.94582557678223 C 0.2388268709182739 17.94565773010254 0.2387937754392624 17.94559669494629 0.2387042939662933 17.94543075561523 C 0.2370724827051163 17.9423942565918 0.2354781031608582 17.93940925598145 0.2338615655899048 17.93636322021484 C 0.2338615655899048 17.93636322021484 0.2338400483131409 17.93632125854492 0.2338400483131409 17.93632125854492 C 0.2334750145673752 17.93563461303711 0.2330973744392395 17.93492126464844 0.2327331304550171 17.93423271179199 C 0.2326741516590118 17.93412208557129 0.2325824350118637 17.9339485168457 0.2325234860181808 17.933837890625 C 0.232185423374176 17.93319702148438 0.2318337708711624 17.93253135681152 0.2314963787794113 17.93189239501953 C 0.2314081341028214 17.93172454833984 0.2312899678945541 17.9315013885498 0.2312017828226089 17.93133354187012 C 0.2308905273675919 17.93074226379395 0.2305681109428406 17.93013000488281 0.2302574217319489 17.92954063415527 C 0.2301400601863861 17.92931747436523 0.2299832701683044 17.92901802062988 0.2298659831285477 17.92879486083984 C 0.2295555472373962 17.92820358276367 0.2292447835206985 17.9276123046875 0.2289349138736725 17.92702102661133 C 0.2288471162319183 17.92685317993164 0.228754460811615 17.92667579650879 0.2286667227745056 17.9265079498291 C 0.2266794741153717 17.9227123260498 0.2246904522180557 17.91888427734375 0.2227269262075424 17.91507530212402 C 0.2227269262075424 17.91507530212402 0.2226960510015488 17.91501617431641 0.2226960510015488 17.91501617431641 C 0.2223008275032043 17.91424942016602 0.2219266444444656 17.91352081298828 0.2215323895215988 17.91275405883789 C 0.2215035557746887 17.91269683837891 0.2214781641960144 17.91264915466309 0.2214493453502655 17.9125919342041 C 0.2210805863142014 17.91187477111816 0.2207035422325134 17.9111385345459 0.2203356176614761 17.91042137145996 C 0.220306858420372 17.91036415100098 0.2202049344778061 17.91016578674316 0.2201761901378632 17.91010856628418 C 0.2197956889867783 17.90936660766602 0.2194307744503021 17.90865135192871 0.21905118227005 17.90790748596191 C 0.21905118227005 17.90790748596191 0.219037190079689 17.90788078308105 0.219037190079689 17.90788078308105 C 0.2166204899549484 17.90314483642578 0.2142398357391357 17.89843368530273 0.211859866976738 17.8936767578125 C 0.2118316292762756 17.89361953735352 0.2118180394172668 17.89359283447266 0.2117898017168045 17.8935375213623 C 0.2114284932613373 17.89281463623047 0.2110567986965179 17.89207077026367 0.2106963545084 17.89134788513184 C 0.2106399983167648 17.89123344421387 0.2106142193078995 17.89118194580078 0.2105578929185867 17.89106941223145 C 0.1533274948596954 17.77625274658203 0.1068130508065224 17.65519905090332 0.07234343141317368 17.52921867370605 C 0.07234343141317368 17.52921867370605 0.072329081594944 17.52916717529297 0.072329081594944 17.52916717529297 C 0.06227107718586922 17.49240684509277 0.05324859172105789 17.45526885986328 0.04527367278933525 17.41770362854004 C 0.04527367278933525 17.41770362854004 0.04526712000370026 17.41767120361328 0.04526712000370026 17.41767120361328 C 0.0450831763446331 17.41680526733398 0.04489338770508766 17.41590881347656 0.04471056908369064 17.41504096984863 C 0.04469720274209976 17.41497802734375 0.04470645263791084 17.4150218963623 0.04469309374690056 17.41495895385742 C 0.04451030865311623 17.41409111022949 0.04433685541152954 17.41326522827148 0.04415519908070564 17.41239929199219 C 0.04414191842079163 17.4123363494873 0.04412445798516273 17.41225242614746 0.04411118105053902 17.41218757629395 C 0.04299825057387352 17.4068717956543 0.0419083870947361 17.40155601501465 0.04083790257573128 17.39622497558594 C 0.04083790257573128 17.39622497558594 0.04082353413105011 17.39615440368652 0.04082353413105011 17.39615440368652 C 0.04064891114830971 17.39528465270996 0.04048091173171997 17.39444351196289 0.0403074249625206 17.39357376098633 C 0.04029474034905434 17.39351081848145 0.04028920829296112 17.39348220825195 0.04027653113007545 17.39341926574707 C 0.04011430218815804 17.39260482788086 0.03994329273700714 17.39174461364746 0.03978205844759941 17.39093017578125 C 0.03976945579051971 17.39086532592773 0.03973115608096123 17.39067268371582 0.03971856087446213 17.3906078338623 C 0.03955746069550514 17.38979339599609 0.03939426690340042 17.38896560668945 0.03923416137695312 17.38815116882324 C 0.03922164812684059 17.38808822631836 0.03920900076627731 17.38802337646484 0.03919649124145508 17.38795852661133 C 0.03816474601626396 17.38270378112793 0.03714076802134514 17.37737464904785 0.03615040704607964 17.37210655212402 C 0.03612639755010605 17.37197875976562 0.03610857948660851 17.37188339233398 0.03608459606766701 17.37175559997559 C 0.03593643754720688 17.37096786499023 0.03580085188150406 17.37024116516113 0.03565362468361855 17.36945343017578 C 0.03561786934733391 17.36926078796387 0.03559353947639465 17.36913108825684 0.03555784001946449 17.36893844604492 C 0.03541606292128563 17.36817741394043 0.03526646643877029 17.36737251281738 0.03512555360794067 17.36660957336426 C 0.03510189801454544 17.36648178100586 0.03507955372333527 17.36636161804199 0.03505592420697212 17.36623382568359 C 0.03490995988249779 17.36544418334961 0.03476154431700706 17.36463928222656 0.03461651131510735 17.36384773254395 C 0.03459303081035614 17.36371994018555 0.03457756340503693 17.3636360168457 0.03455410525202751 17.3635082244873 C 0.03375716507434845 17.35916137695312 0.03297827392816544 17.35483360290527 0.03220957145094872 17.35047721862793 C 0.03218694403767586 17.35034942626953 0.03216404840350151 17.35022163391113 0.03214144706726074 17.3500919342041 C 0.03201178833842278 17.34935760498047 0.03188320249319077 17.34862518310547 0.03175435215234756 17.3478889465332 C 0.03170941770076752 17.34763145446777 0.0316791795194149 17.34745979309082 0.03163434192538261 17.34720230102539 C 0.03150574117898941 17.34646797180176 0.03138010203838348 17.34574508666992 0.03125230595469475 17.34500885009766 C 0.0312188807874918 17.34481811523438 0.03119671903550625 17.34469032287598 0.03116334974765778 17.34449768066406 C 0.03103083372116089 17.3437328338623 0.03089651465415955 17.34295463562012 0.0307648703455925 17.34218978881836 C 0.03074277006089687 17.34206199645996 0.0307073462754488 17.34185600280762 0.03068527206778526 17.34172821044922 C 0.03055382147431374 17.34096336364746 0.03041457012295723 17.34015083312988 0.03028399124741554 17.33938598632812 C 0.0302620641887188 17.33925628662109 0.03025398589670658 17.33920860290527 0.03023208305239677 17.33908081054688 C 0.02964264340698719 17.33562278747559 0.02905557677149773 17.33212280273438 0.02848397009074688 17.32866096496582 C 0.02846273221075535 17.32853126525879 0.02845778316259384 17.3285026550293 0.02843656949698925 17.3283748626709 C 0.02831955812871456 17.32766342163086 0.02819636464118958 17.32691383361816 0.02808010205626488 17.32620429992676 C 0.02803794667124748 17.32594680786133 0.0280004944652319 17.32571792602539 0.02795843780040741 17.32546043395996 C 0.02784244529902935 17.32475090026855 0.02773185260593891 17.32406997680664 0.02761661075055599 17.32336044311523 C 0.02757480181753635 17.3231029510498 0.02754210121929646 17.32290077209473 0.02750038914382458 17.3226432800293 C 0.02738998830318451 17.32196044921875 0.0272735059261322 17.32123947143555 0.02716379798948765 17.320556640625 C 0.02712235786020756 17.32029914855957 0.02708376944065094 17.32005882263184 0.02704242989420891 17.31980133056641 C 0.02692841924726963 17.31908988952637 0.02681668475270271 17.31839179992676 0.02670342661440372 17.31768226623535 C 0.02667262591421604 17.3174877166748 0.02663077041506767 17.31722450256348 0.02660002559423447 17.31702995300293 C 0.02648700773715973 17.31632041931152 0.02637113071978092 17.31558990478516 0.02625886723399162 17.31487846374512 C 0.02622832544147968 17.3146858215332 0.02619485184550285 17.3144702911377 0.02616436593234539 17.31427764892578 C 0.02563995495438576 17.31094932556152 0.02511884644627571 17.30758476257324 0.02461094409227371 17.30425071716309 C 0.0245814248919487 17.30405616760254 0.02455733343958855 17.30389785766602 0.02452787011861801 17.3037052154541 C 0.02441522292792797 17.30296325683594 0.02430615574121475 17.30224227905273 0.02419432625174522 17.30150032043457 C 0.02415531314909458 17.30124282836914 0.02413856983184814 17.30113220214844 0.02409965731203556 17.30087280273438 C 0.02399233914911747 17.30016136169434 0.02388549223542213 17.29944801330566 0.02377893030643463 17.29873466491699 C 0.02374029159545898 17.29847717285156 0.0237019918859005 17.29821968078613 0.02366345189511776 17.29796028137207 C 0.02356141246855259 17.29727554321289 0.02345669269561768 17.29657173156738 0.02335534989833832 17.2958869934082 C 0.02331705950200558 17.29562759399414 0.02328435517847538 17.29540634155273 0.0232461653649807 17.29514694213867 C 0.02314508333802223 17.29446220397949 0.02303673513233662 17.29372596740723 0.02293635345995426 17.29304122924805 C 0.02289843559265137 17.29278182983398 0.0228688158094883 17.29257774353027 0.02283099666237831 17.29232025146484 C 0.02235959097743034 17.28909301757812 0.02188787795603275 17.28580665588379 0.02143195830285549 17.2825756072998 C 0.02139538712799549 17.28231620788574 0.02135441452264786 17.28202819824219 0.02131794206798077 17.28176879882812 C 0.02122542448341846 17.2811107635498 0.02113465406000614 17.28046035766602 0.02104277908802032 17.2798023223877 C 0.02099750004708767 17.27947807312012 0.0209569726139307 17.27918815612793 0.02091185189783573 17.27886390686035 C 0.02082824520766735 17.27826309204102 0.02073878236114979 17.27761840820312 0.02065571397542953 17.27701759338379 C 0.0206019040197134 17.27662658691406 0.02055754140019417 17.27630615234375 0.02050395682454109 17.27591705322266 C 0.0204212199896574 17.27531623840332 0.0203440859913826 17.27475357055664 0.02026188559830189 17.2741527557373 C 0.02020863816142082 17.27376174926758 0.02014755085110664 17.27331352233887 0.02009453065693378 17.27292442321777 C 0.02002048119902611 17.27238082885742 0.01994828693568707 17.27184867858887 0.01987467706203461 17.27130508422852 C 0.01982199400663376 17.27091598510742 0.01975920423865318 17.27044868469238 0.01970674656331539 17.27005958557129 C 0.01962574757635593 17.26945686340332 0.01954620331525803 17.26886558532715 0.01946574077010155 17.26826477050781 C 0.01943099498748779 17.26800537109375 0.01941384747624397 17.26787376403809 0.01937920041382313 17.26761436462402 C 0.01907346025109291 17.26532173156738 0.01877292990684509 17.26303672790527 0.0184749998152256 17.2607421875 C 0.01843278855085373 17.26041603088379 0.01839465461671352 17.26012420654297 0.01835259981453419 17.25979995727539 C 0.01826725341379642 17.25914001464844 0.01817668043076992 17.2584342956543 0.01809198036789894 17.25777435302734 C 0.01805858872830868 17.25751304626465 0.01802368089556694 17.25724220275879 0.01799038983881474 17.25698089599609 C 0.01790594309568405 17.25632095336914 0.0178202036768198 17.25564765930176 0.0177364032715559 17.25498580932617 C 0.01768684200942516 17.25459480285645 0.01766012981534004 17.25438499450684 0.01761079579591751 17.25399398803711 C 0.01753459125757217 17.25339126586914 0.01745688915252686 17.25277328491211 0.0173812247812748 17.25217056274414 C 0.01733222790062428 17.25177955627441 0.01729227229952812 17.25146102905273 0.01724350266158581 17.25107002258301 C 0.01716817170381546 17.25046539306641 0.01709579676389694 17.24988555908203 0.01702100597321987 17.24928092956543 C 0.01697257533669472 17.2488899230957 0.01692689768970013 17.24851989746094 0.01687869429588318 17.24812889099121 C 0.01680423691868782 17.24752616882324 0.0167304240167141 17.24692726135254 0.01665650680661201 17.24632263183594 C 0.01662459783256054 17.24606132507324 0.01658022031188011 17.24569702148438 0.01654841192066669 17.24543571472168 C 0.01625377871096134 17.24301910400391 0.01596624776721001 17.24062728881836 0.01568027213215828 17.23820877075195 C 0.01566483452916145 17.23807716369629 0.01564996875822544 17.23795318603516 0.0156345572322607 17.23782348632812 C 0.01554956845939159 17.23710250854492 0.01547121442854404 17.2364330291748 0.01538699306547642 17.23571395874023 C 0.0153564466163516 17.23545265197754 0.01532680448144674 17.23520088195801 0.01529635861515999 17.23493957519531 C 0.01522248797118664 17.23430633544922 0.01514174416661263 17.23360824584961 0.01506846863776445 17.23297309875488 C 0.01503072772175074 17.23264694213867 0.01499217003583908 17.23231506347656 0.01495458744466305 17.23198699951172 C 0.01488163601607084 17.23135375976562 0.01481150463223457 17.23074150085449 0.01473914925009012 17.23010635375977 C 0.01470188237726688 17.22978019714355 0.01465490087866783 17.22936820983887 0.01461779233068228 17.22904014587402 C 0.01455231010913849 17.22846412658691 0.01448304764926434 17.22785186767578 0.01441805809736252 17.22727584838867 C 0.01437386963516474 17.22688293457031 0.01432702131569386 17.22646522521973 0.01428306009620428 17.22607231140137 C 0.01421518344432116 17.22546768188477 0.01414766255766153 17.22486305236816 0.01408032886683941 17.22425842285156 C 0.01404397934675217 17.22393035888672 0.01401462312787771 17.22366333007812 0.01397843286395073 17.22333717346191 C 0.0139049980789423 17.2226734161377 0.01383167132735252 17.22200965881348 0.0137588893994689 17.22134590148926 C 0.01373019069433212 17.22108459472656 0.0137074813246727 17.22087478637695 0.01367888320237398 17.22061347961426 C 0.01342020835727453 17.21824645996094 0.01316490489989519 17.21586990356445 0.01291453372687101 17.21349906921387 C 0.01288684923201799 17.21323776245117 0.01287269499152899 17.21310615539551 0.0128451120108366 17.21284484863281 C 0.01277815736830235 17.21220779418945 0.01270753424614668 17.2115306854248 0.01264117751270533 17.21089553833008 C 0.01260014623403549 17.21050262451172 0.01257588993757963 17.21027183532715 0.01253508869558573 17.20987892150879 C 0.01246905792504549 17.20924186706543 0.01240347884595394 17.20860481262207 0.01233804784715176 17.20796966552734 C 0.01230433210730553 17.2076416015625 0.01227047946304083 17.20731163024902 0.01223692297935486 17.20698547363281 C 0.01217477768659592 17.20637702941895 0.01211034599691629 17.20574378967285 0.01204874739050865 17.20513725280762 C 0.01200886070728302 17.20474433898926 0.01196734048426151 17.20433235168457 0.01192768383771181 17.20393943786621 C 0.01187228038907051 17.20339012145996 0.01181051135063171 17.20277404785156 0.0117555558681488 17.20222473144531 C 0.01171624287962914 17.20183181762695 0.01167246326804161 17.20138931274414 0.0116333793848753 17.20099639892578 C 0.01157587859779596 17.20041656494141 0.01152227539569139 17.19987678527832 0.01146527007222176 17.19929885864258 C 0.01142002921551466 17.19883918762207 0.01138143800199032 17.19844245910645 0.01133650820702314 17.19798278808594 C 0.01128270756453276 17.19743156433105 0.01122930459678173 17.1968879699707 0.01117595098912716 17.19633674621582 C 0.01112501230090857 17.1958122253418 0.01109020225703716 17.19544792175293 0.01103967148810625 17.19492149353027 C 0.01094487309455872 17.19393730163574 0.01085602678358555 17.19300651550293 0.01076266448944807 17.19202041625977 C 0.01071907486766577 17.19156074523926 0.01067328918725252 17.19108009338379 0.01063001248985529 17.19062042236328 C 0.01057821791619062 17.1900691986084 0.01052892673760653 17.18953895568848 0.01047758013010025 17.18898773193359 C 0.01043470669537783 17.18852806091309 0.01039424818009138 17.18809509277344 0.01035168766975403 17.18763542175293 C 0.01030337903648615 17.18711280822754 0.01025717798620462 17.18660736083984 0.01020927261561155 17.18608665466309 C 0.01016099005937576 17.18556022644043 0.01012227311730385 17.18513870239258 0.01007439941167831 17.18461227416992 C 0.01003215555101633 17.18414688110352 0.009989778511226177 17.18367958068848 0.009947854094207287 17.18321418762207 C 0.00990033894777298 17.18268775939941 0.009849876165390015 17.18212699890137 0.009802770800888538 17.18160057067871 C 0.009761224500834942 17.18113708496094 0.009713868610560894 17.18060493469238 0.009672641754150391 17.18014144897461 C 0.00963178277015686 17.17967987060547 0.009582722559571266 17.17912292480469 0.009542177431285381 17.17866325378418 C 0.009498734027147293 17.17816925048828 0.009455534629523754 17.17767715454102 0.009412451647222042 17.17718315124512 C 0.009372265078127384 17.17672348022461 0.009319429285824299 17.17611312866211 0.009279556572437286 17.17565155029297 C 0.009236855432391167 17.17515754699707 0.009194874204695225 17.17467308044434 0.009152534417808056 17.17417907714844 C 0.009101730771362782 17.17358589172363 0.009049209766089916 17.1729679107666 0.008998926728963852 17.1723747253418 C 0.008966873399913311 17.1719970703125 0.008936264552175999 17.17164039611816 0.008904421702027321 17.17126083374023 C 0.00884338840842247 17.17053604125977 0.008773730136454105 17.16970062255859 0.008713473565876484 17.16897583007812 C 0.008653050288558006 17.16824913024902 0.008593973703682423 17.16753196716309 0.008534331806004047 17.16680335998535 C 0.008496480993926525 17.16634178161621 0.008456679992377758 17.16585922241211 0.008419143967330456 17.16539764404297 C 0.008376562036573887 17.16487312316895 0.0083377780392766 17.16439056396484 0.008295601233839989 17.16386604309082 C 0.008258424699306488 17.16340446472168 0.008216624148190022 17.16288566589355 0.008179763332009315 17.16242408752441 C 0.008140270598232746 17.16193008422852 0.008101138286292553 17.16143417358398 0.008062006905674934 17.16094017028809 C 0.008020292036235332 17.1604118347168 0.007981838658452034 17.1599235534668 0.007940535433590412 17.15939712524414 C 0.007899508811533451 17.15887260437012 0.007862148806452751 17.15839195251465 0.007821528241038322 17.15786743164062 C 0.007785703055560589 17.15740585327148 0.007752817124128342 17.15697860717773 0.007717307657003403 17.15651702880859 C 0.007674787193536758 17.15596389770508 0.007634231355041265 17.15543365478516 0.007592163514345884 17.15488052368164 C 0.00755199370905757 17.15435218811035 0.007524053100496531 17.15398025512695 0.007484295405447483 17.15345191955566 C 0.007444802671670914 17.15292739868164 0.007408928591758013 17.15245246887207 0.007369842380285263 17.15192794799805 C 0.007330446038395166 17.15139961242676 0.007293137721717358 17.15089225769043 0.007254153955727816 17.15036392211914 C 0.007219752296805382 17.1498966217041 0.007185403723269701 17.14943313598633 0.007151323836296797 17.14896774291992 C 0.007093389984220266 17.14817428588867 0.007036914117634296 17.14739036560059 0.00697991019114852 17.14659690856934 C 0.006952661089599133 17.14621925354004 0.006925997789949179 17.14584541320801 0.006898961029946804 17.14546585083008 C 0.006842422299087048 17.14467239379883 0.006785034202039242 17.14386558532715 0.006729425396770239 17.14307022094727 C 0.006700801663100719 17.14266204833984 0.006672150921076536 17.14224624633789 0.00664377398788929 17.14183807373047 C 0.006602416280657053 17.14124298095703 0.006561300251632929 17.14064979553223 0.006520466413348913 17.14005470275879 C 0.006490439642220736 17.13961601257324 0.006464696954935789 17.13923645019531 0.006434953771531582 17.13879776000977 C 0.006394469179213047 17.13820266723633 0.006356021389365196 17.13763427734375 0.00631606113165617 17.13703918457031 C 0.006286696065217257 17.13660049438477 0.006256444845348597 17.13614463806152 0.006227363366633654 17.13570785522461 C 0.006192205473780632 17.13517761230469 0.006150967441499233 17.13455200195312 0.006116223987191916 17.1340217590332 C 0.0060875010676682 17.13358306884766 0.006057881750166416 17.13312911987305 0.006029442884027958 17.13269233703613 C 0.005995062179863453 17.13216209411621 0.005958575289696455 17.13159370422363 0.005924609489738941 17.13106346130371 C 0.005894658155739307 17.13059616088867 0.005862448364496231 17.13009452819824 0.005832819733768702 17.12962532043457 C 0.005799268838018179 17.12909507751465 0.005756823811680079 17.12841796875 0.00572368735447526 17.12788772583008 C 0.005699942819774151 17.12750816345215 0.005673593375831842 17.12708854675293 0.00565006211400032 17.126708984375 C 0.005604927893728018 17.12597846984863 0.005562111269682646 17.12527656555176 0.005517762620002031 17.12454605102539 C 0.0054999771527946 17.12425422668457 0.005481503438204527 17.12395477294922 0.005463844630867243 17.1236629486084 C 0.005403855815529823 17.12266731262207 0.005344024393707514 17.12166595458984 0.005285497289150953 17.12067031860352 C 0.005269990768283606 17.12040710449219 0.005257701966911554 17.12019157409668 0.005242298357188702 17.11992835998535 C 0.005199592560529709 17.11919784545898 0.005155412945896387 17.11843872070312 0.005113493651151657 17.11770820617676 C 0.00508997542783618 17.1172981262207 0.005067690275609493 17.11690330505371 0.005044419784098864 17.11649322509766 C 0.005010532215237617 17.11589622497559 0.00497364392504096 17.11524391174316 0.004940283019095659 17.11464691162109 C 0.004917385056614876 17.11423683166504 0.004892951343208551 17.11379432678223 0.004870301112532616 17.11338424682617 C 0.004837292246520519 17.11278533935547 0.004810817074030638 17.1123046875 0.004778335336595774 17.11170768737793 C 0.00475124130025506 17.11120796203613 0.004727525170892477 17.11076927185059 0.004700797609984875 17.11027145385742 C 0.004672289825975895 17.10973930358887 0.004644953180104494 17.10922622680664 0.004616862162947655 17.10869407653809 C 0.00459207221865654 17.10822486877441 0.004564694128930569 17.10770606994629 0.004540228750556707 17.10723686218262 C 0.004512502811849117 17.1067066192627 0.004488844890147448 17.10624694824219 0.004461536183953285 17.10571479797363 C 0.004435908049345016 17.10521507263184 0.004410352557897568 17.1047191619873 0.004385091830044985 17.10422134399414 C 0.004354780539870262 17.10362243652344 0.004330620169639587 17.10313606262207 0.004300837405025959 17.10253715515137 C 0.004280390217900276 17.10212707519531 0.00425661588087678 17.10165405273438 0.004236417822539806 17.10124397277832 C 0.004193907137960196 17.10037994384766 0.004152455367147923 17.09952163696289 0.004111048299819231 17.09865760803223 C 0.004099811427295208 17.09842300415039 0.004088703077286482 17.09819030761719 0.004077547695487738 17.09795570373535 C 0.004036480560898781 17.09709167480469 0.00399010768160224 17.09610366821289 0.003950144629925489 17.09523773193359 C 0.003936582244932652 17.09494400024414 0.003924082964658737 17.09466552734375 0.003910647239536047 17.0943717956543 C 0.00388023373670876 17.09370613098145 0.003841615747660398 17.09285736083984 0.003811856266111135 17.09219169616699 C 0.003796115517616272 17.09183883666992 0.003779185237362981 17.09145164489746 0.003763627959415317 17.09109878540039 C 0.003734261030331254 17.09043312072754 0.003708094591274858 17.08983612060547 0.003679382149130106 17.08917045593262 C 0.003662892850115895 17.08878898620605 0.00364622799679637 17.08839797973633 0.003629954298958182 17.08801460266113 C 0.003601569216698408 17.08734893798828 0.003576948074623942 17.08676528930664 0.00354921817779541 17.08609771728516 C 0.003533309092745185 17.08571624755859 0.00351633527316153 17.08530616760254 0.003500641556456685 17.08492469787598 C 0.003476038575172424 17.08432388305664 0.003448223927989602 17.08363723754883 0.003424152033403516 17.08303642272949 C 0.00340882339514792 17.08265495300293 0.003393149469047785 17.08226585388184 0.003378036664798856 17.08188247680664 C 0.003351683495566249 17.08121681213379 0.003329556668177247 17.08064460754395 0.003303859615698457 17.07997894287109 C 0.003289111889898777 17.0795955657959 0.00327274645678699 17.07917594909668 0.003258214564993978 17.07879447937012 C 0.003225234802812338 17.07792663574219 0.003199789905920625 17.07724189758301 0.003167919581755996 17.07637405395508 C 0.003161419648677111 17.07619857788086 0.003154151141643524 17.07600784301758 0.003147697309032083 17.07583045959473 C 0.003108682576566935 17.07476234436035 0.003074534703046083 17.07380867004395 0.003037202171981335 17.07274055480957 C 0.003031016793102026 17.07256317138672 0.003026611637324095 17.07242965698242 0.00302047235891223 17.07225227355957 C 0.002990310546010733 17.07138633728027 0.002962226513773203 17.07056617736816 0.002933176001533866 17.06969833374023 C 0.002922329120337963 17.06937408447266 0.00291127129457891 17.06903266906738 0.002900579012930393 17.0687084197998 C 0.002878561615943909 17.06804084777832 0.002856825944036245 17.06737899780273 0.002835466526448727 17.06671142578125 C 0.002822270849719644 17.06629753112793 0.002808508696034551 17.06585693359375 0.002795564010739326 17.06544494628906 C 0.002776696113869548 17.06484413146973 0.002759075723588467 17.06427764892578 0.002740741241723299 17.06367492675781 C 0.002727256854996085 17.063232421875 0.002715049544349313 17.06282806396484 0.002701853401958942 17.06238555908203 C 0.002683874685317278 17.06178283691406 0.00266635324805975 17.06118583679199 0.002648908412083983 17.06058311462402 C 0.002636951394379139 17.06017112731934 0.002625484950840473 17.05977439880371 0.002613779390230775 17.05936241149902 C 0.002594791818410158 17.05869293212891 0.002579206833615899 17.05812835693359 0.00256087863817811 17.05746078491211 C 0.002550359815359116 17.05707740783691 0.002539378823712468 17.05668067932129 0.002529076999053359 17.05629730224609 C 0.002512938110157847 17.05569458007812 0.002494647866114974 17.05499076843262 0.002479043556377292 17.05438995361328 C 0.002469109138473868 17.05400657653809 0.002458474598824978 17.0536060333252 0.002448757411912084 17.05322265625 C 0.00242503872141242 17.05228424072266 0.002402805024757981 17.0513801574707 0.002380381105467677 17.05044364929199 C 0.002377555705606937 17.05032539367676 0.002373758004978299 17.05016708374023 0.002370953327044845 17.050048828125 C 0.002348714275285602 17.04911231994629 0.002325522247701883 17.04810523986816 0.002304579131305218 17.04716873168945 C 0.002297319006174803 17.04684448242188 0.002292391611263156 17.04660606384277 0.002285287482663989 17.04627990722656 C 0.002270658733323216 17.04561042785645 0.002252820413559675 17.04478454589844 0.002238853368908167 17.04411506652832 C 0.002231474267318845 17.04376029968262 0.002223584800958633 17.04336357116699 0.00221639103256166 17.04300880432129 C 0.00220417813397944 17.04240608215332 0.002190408296883106 17.04171752929688 0.002178731607273221 17.04111480712891 C 0.002170164836570621 17.04067039489746 0.002161987591534853 17.04023551940918 0.002153710694983602 17.03979110717773 C 0.002142451470717788 17.03918838500977 0.002132752677425742 17.03866004943848 0.00212203012779355 17.03805732727051 C 0.002114120870828629 17.03761291503906 0.002107270294800401 17.0372257232666 0.002099651377648115 17.03678131103516 C 0.002089286688715219 17.03617858886719 0.002078616293147206 17.03553581237793 0.00206878874450922 17.03493118286133 C 0.002062039216980338 17.03451728820801 0.002055588876828551 17.03412437438965 0.002049092203378677 17.03371047973633 C 0.002038570819422603 17.03303909301758 0.002029793802648783 17.03244972229004 0.002019935753196478 17.03177833557129 C 0.002014272846281528 17.03139495849609 0.002009047195315361 17.03105354309082 0.002003602450713515 17.03067016601562 C 0.001992171397432685 17.02986526489258 0.001983511727303267 17.02921295166016 0.001973036909475923 17.02840805053711 C 0.001969558419659734 17.02814102172852 0.00196580751799047 17.02787780761719 0.001962433569133282 17.02761077880859 C 0.001948786084540188 17.02653884887695 0.001937781576998532 17.02561187744141 0.001925835385918617 17.02453804016113 C 0.001924187410622835 17.02438926696777 0.001922665513120592 17.02423095703125 0.001921049901284277 17.02408218383789 C 0.001911516534164548 17.0232105255127 0.001902760472148657 17.02236938476562 0.001894351094961166 17.02149772644043 C 0.00189120986033231 17.02117156982422 0.001887895865365863 17.02078628540039 0.001884911325760186 17.02046012878418 C 0.001878775423392653 17.01978874206543 0.001873099245131016 17.01915740966797 0.001867628889158368 17.01848411560059 C 0.001864247606135905 17.01807022094727 0.001860706484876573 17.0175952911377 0.001857579220086336 17.01717948913574 C 0.001853015506640077 17.01657485961914 0.001849320717155933 17.01606941223145 0.001845296588726342 17.01546478271484 C 0.001842334982939065 17.01501846313477 0.001839404809288681 17.01455497741699 0.001836735056713223 17.01411056518555 C 0.001833070768043399 17.01350593566895 0.00183004536665976 17.01294898986816 0.001826921128667891 17.01234436035156 C 0.001824792707338929 17.01192855834961 0.001822448684833944 17.01146507263184 0.001820574630983174 17.01104927062988 C 0.001817870535887778 17.01044464111328 0.001815531868487597 17.00983810424805 0.001813368056900799 17.00923347473145 C 0.0018118757288903 17.00881767272949 0.00181027571670711 17.00841522216797 0.001809037989005446 17.00799942016602 C 0.001807234599255025 17.00739479064941 0.00180575274862349 17.00670623779297 0.001804490108042955 17.00610160827637 C 0.001803695573471487 17.00571632385254 0.001802561804652214 17.00529479980469 0.001801987062208354 17.00490760803223 C 0.001800483674742281 17.00389862060547 0.001799586461856961 17.00291061401367 0.001799586461856961 17.00190162658691 C 0.001799586461856961 17.00190162658691 0.001799586461856961 14.39158058166504 0.001799586461856961 14.39158058166504 L 1.001799583435059 14.39158058166504 L 1.001799583435059 17.00190162658691 C 1.001799583435059 17.30046081542969 1.127969622612 17.51421165466309 1.233809590339661 17.64095115661621 L 0.4662595987319946 18.28194046020508 Z M 1.001799583435059 11.39158058166504 L 0.001799586461856961 11.39158058166504 C 0.001799586461856961 11.39158058166504 0.001799586461856961 7.391581058502197 0.001799586461856961 7.391581058502197 L 1.001799583435059 7.391581058502197 L 1.001799583435059 11.39158058166504 Z M 1.001799583435059 4.391581058502197 L 0.001799586461856961 4.391581058502197 C 0.001799586461856961 4.391581058502197 0.001799586461856961 2.001600980758667 0.001799586461856961 2.001600980758667 C 0.001799586461856961 2.000496387481689 0.001800558180548251 1.999394536018372 0.001802357845008373 1.998290419578552 C 0.00180246471427381 1.998223066329956 0.001802453538402915 1.998270273208618 0.001802567159757018 1.998202919960022 C 0.001804307103157043 1.997167825698853 0.001806944259442389 1.996084928512573 0.001810264657251537 1.995050191879272 C 0.001811547088436782 1.994646668434143 0.0018134955316782 1.994256258010864 0.001815018127672374 1.993852734565735 C 0.001817652955651283 1.993162989616394 0.001820106175728142 1.992472648620605 0.001823442988097668 1.991783022880554 C 0.00182540575042367 1.991379737854004 0.00182866002433002 1.990851163864136 0.001830862835049629 1.990447878837585 C 0.001834276365116239 1.989827275276184 0.001837902935221791 1.989135026931763 0.001841884339228272 1.98851466178894 C 0.001844920916482806 1.988044142723083 0.001849142252467573 1.987501263618469 0.001852505258284509 1.987030863761902 C 0.001856712508015335 1.986445069313049 0.001860706135630608 1.985855460166931 0.001865419675596058 1.985269665718079 C 0.00186974264215678 1.984732270240784 0.001875221845693886 1.984143614768982 0.001879970892332494 1.983606219291687 C 0.001884550205431879 1.983089566230774 0.001889216946437955 1.982536911964417 0.001894189976155758 1.982020258903503 C 0.001899364986456931 1.981483101844788 0.001905865152366459 1.980884552001953 0.001911465777084231 1.980347394943237 C 0.001917218440212309 1.979796409606934 0.001922322902828455 1.979289054870605 0.001928523299284279 1.978738188743591 C 0.001934549654833972 1.978201150894165 0.001941145863384008 1.977673172950745 0.001947597484104335 1.977136254310608 C 0.001954245613887906 1.976585507392883 0.00196072063408792 1.976031184196472 0.001967816147953272 1.975480437278748 C 0.001974746119230986 1.9749436378479 0.001982304034754634 1.974400758743286 0.00198965915478766 1.973864078521729 C 0.001997173996642232 1.973313450813293 0.002004844835028052 1.972745895385742 0.00201280671171844 1.972195386886597 C 0.002019614214077592 1.971725821495056 0.00202856631949544 1.971148252487183 0.002035699086263776 1.970678806304932 C 0.002044603694230318 1.970094084739685 0.002053446834906936 1.969509840011597 0.002062855986878276 1.96892523765564 C 0.002071485389024019 1.968388795852661 0.002079453552141786 1.96792471408844 0.00208850740455091 1.967388391494751 C 0.002098361263051629 1.966803908348083 0.00210743909701705 1.966261267662048 0.002117797033861279 1.96567690372467 C 0.002127275103703141 1.965140700340271 0.002136459341272712 1.964648962020874 0.002146361628547311 1.964112877845764 C 0.002156528411433101 1.963562965393066 0.002167192287743092 1.962983965873718 0.002177805174142122 1.962434053421021 C 0.002189422026276588 1.961831092834473 0.002198399975895882 1.961389183998108 0.00221055350266397 1.96078634262085 C 0.002221612259745598 1.960236668586731 0.002231776947155595 1.959730386734009 0.002243281342089176 1.95918083190918 C 0.002253104699775577 1.958711981773376 0.002266997471451759 1.958069920539856 0.002277144929394126 1.957601189613342 C 0.002289812313392758 1.957017302513123 0.002301792381331325 1.956466197967529 0.002314962679520249 1.955882430076599 C 0.002327035879716277 1.955346822738647 0.00233757495880127 1.954893946647644 0.00235007144510746 1.954358577728271 C 0.002363655483350158 1.953774929046631 0.002376621123403311 1.953221917152405 0.002390707610175014 1.952638387680054 C 0.002403626916930079 1.952103018760681 0.002415510360151529 1.951624035835266 0.002428852487355471 1.951088786125183 C 0.002442527562379837 1.950539708137512 0.002457077382132411 1.949960470199585 0.002471196930855513 1.949411511421204 C 0.002484961645677686 1.94887638092041 0.002500278875231743 1.948297142982483 0.002514466177672148 1.947762012481689 C 0.002528146142140031 1.947247505187988 0.002542962785810232 1.946694493293762 0.002557033207267523 1.946179986000061 C 0.002573469188064337 1.945578217506409 0.002586430637165904 1.945114493370056 0.002603400964289904 1.944512844085693 C 0.002617887686938047 1.943998456001282 0.002633213764056563 1.943459987640381 0.002648090943694115 1.942945718765259 C 0.002665476407855749 1.942344188690186 0.00267949397675693 1.941869139671326 0.002697413321584463 1.941267728805542 C 0.002712732646614313 1.940753579139709 0.002730794018134475 1.940154552459717 0.002746503101661801 1.939640522003174 C 0.002762853167951107 1.939105987548828 0.002777950139716268 1.938618302345276 0.002794721629470587 1.93808388710022 C 0.002811921527609229 1.937535643577576 0.002830714220181108 1.936943769454956 0.002848357427865267 1.936395645141602 C 0.002865550341084599 1.935861349105835 0.00288351415656507 1.935310482978821 0.002901128260418773 1.934776186943054 C 0.002918084152042866 1.93426251411438 0.002936320612207055 1.933717489242554 0.002953665796667337 1.933203816413879 C 0.002973955357447267 1.932602882385254 0.002991076093167067 1.932100296020508 0.003011898137629032 1.931499600410461 C 0.003028498729690909 1.931020379066467 0.00304781086742878 1.930470585823059 0.003064750460907817 1.929991364479065 C 0.003085986478254199 1.929390668869019 0.003105351002886891 1.928847551345825 0.003127119271084666 1.928247094154358 C 0.003146948991343379 1.927699565887451 0.003163822228088975 1.927241444587708 0.003184094093739986 1.92669403553009 C 0.00320386397652328 1.926160335540771 0.003223867854103446 1.925620794296265 0.003244058229029179 1.925087332725525 C 0.003264744533225894 1.924539923667908 0.003287059720605612 1.923959851264954 0.003308188170194626 1.923412561416626 C 0.003328798338770866 1.922879099845886 0.00334979803301394 1.922337651252747 0.003370828228071332 1.921804189682007 C 0.003392398357391357 1.921257138252258 0.003413863712921739 1.92072319984436 0.003435875521972775 1.920176148414612 C 0.003457325277850032 1.919642925262451 0.003478109370917082 1.919127464294434 0.003499978687614202 1.918594360351562 C 0.003523805877193809 1.918013215065002 0.003545052604749799 1.917505621910095 0.00356937781907618 1.916924595832825 C 0.003591666463762522 1.916391611099243 0.003613685956224799 1.915866374969482 0.003636393928900361 1.915333390235901 C 0.003659701906144619 1.914786815643311 0.00368209695443511 1.914271950721741 0.003705845680087805 1.91372537612915 C 0.00373186357319355 1.913125991821289 0.00375108583830297 1.912681818008423 0.003777633886784315 1.912082433700562 C 0.003800311591476202 1.911570191383362 0.003822551108896732 1.911077737808228 0.003845616243779659 1.910565495491028 C 0.003872576402500272 1.909966349601746 0.003898540744557977 1.909389615058899 0.003926030825823545 1.908790588378906 C 0.003947967197746038 1.908312678337097 0.003969083540141582 1.907862544059753 0.003991357516497374 1.907384753227234 C 0.004019259475171566 1.906785726547241 0.004047247115522623 1.906184673309326 0.004075678065419197 1.905585885047913 C 0.004099981393665075 1.905074000358582 0.00412123603746295 1.904636740684509 0.004145925864577293 1.904124975204468 C 0.004171615932136774 1.903592824935913 0.004206165205687284 1.902875661849976 0.004232273437082767 1.90234363079071 C 0.004257401451468468 1.901831984519958 0.004281742032617331 1.901347279548645 0.004307256080210209 1.900835752487183 C 0.004333782009780407 1.900303840637207 0.004364278167486191 1.899689793586731 0.004391221329569817 1.899158000946045 C 0.004417147487401962 1.898646473884583 0.004442173987627029 1.89816427230835 0.004468485713005066 1.897652864456177 C 0.004499266855418682 1.897054672241211 0.004530041012912989 1.896453738212585 0.004561349749565125 1.895855665206909 C 0.004582770168781281 1.89544665813446 0.004608368966728449 1.894968748092651 0.004630036186426878 1.894559860229492 C 0.004661755636334419 1.893961906433105 0.004698929842561483 1.893258213996887 0.004731176886707544 1.89266037940979 C 0.004755072761327028 1.892217516899109 0.004779020324349403 1.891784429550171 0.004803205374628305 1.89134156703949 C 0.004835863132029772 1.890743851661682 0.004876503720879555 1.889997839927673 0.004909689072519541 1.889400243759155 C 0.004932404030114412 1.888991594314575 0.004956062417477369 1.888576507568359 0.004979024175554514 1.888167977333069 C 0.005012618843466043 1.88757050037384 0.005054695531725883 1.886819243431091 0.005088817328214645 1.886221885681152 C 0.005112169310450554 1.885813355445862 0.005136231891810894 1.885403156280518 0.005159829743206501 1.884994745254517 C 0.005198197904974222 1.884331107139587 0.005240604747086763 1.883594036102295 0.005279622972011566 1.882930636405945 C 0.005289626307785511 1.882760405540466 0.005296639166772366 1.882646083831787 0.005306685343384743 1.882475972175598 C 0.005361492745578289 1.881547212600708 0.005413191393017769 1.880676627159119 0.005469271913170815 1.879748225212097 C 0.005483647342771292 1.879510164260864 0.00549515662714839 1.879326462745667 0.005509615875780582 1.879088401794434 C 0.005739053245633841 1.875308871269226 0.005972685292363167 1.871632218360901 0.006223185919225216 1.867858290672302 C 0.006243464536964893 1.867552638053894 0.00626323651522398 1.86724853515625 0.0062836529687047 1.866943001747131 C 0.006327859591692686 1.866281032562256 0.006364963483065367 1.865737795829773 0.006409816909581423 1.865075945854187 C 0.006439705844968557 1.86463463306427 0.006470022723078728 1.864181637763977 0.006500199437141418 1.86374044418335 C 0.006540916860103607 1.863144874572754 0.006580655928701162 1.862576007843018 0.006621897220611572 1.861980676651001 C 0.006654823664575815 1.861505627632141 0.006691081449389458 1.860977649688721 0.006724341306835413 1.860502600669861 C 0.006766047794371843 1.859907388687134 0.00681528402492404 1.859216094017029 0.006857513915747404 1.858620882034302 C 0.006886409595608711 1.858213901519775 0.006919237785041332 1.857746958732605 0.006948378402739763 1.857339978218079 C 0.006991015281528234 1.856744885444641 0.007041420787572861 1.856052041053772 0.007084580603986979 1.855457186698914 C 0.007116568740457296 1.855016469955444 0.007151645142585039 1.85452926158905 0.007183920592069626 1.854088664054871 C 0.007227486465126276 1.853493928909302 0.007272761315107346 1.852885603904724 0.007316850125789642 1.852290987968445 C 0.007349522318691015 1.851850509643555 0.00738704577088356 1.851341366767883 0.007420004811137915 1.850900888442993 C 0.007464500144124031 1.850306391716003 0.007507709320634604 1.849737763404846 0.007552726194262505 1.849143385887146 C 0.007588647771626711 1.848669171333313 0.007629179395735264 1.848131537437439 0.007665433455258608 1.847657442092896 C 0.007710914127528667 1.847063183784485 0.007758834399282932 1.846444487571716 0.007804837077856064 1.845850348472595 C 0.007838898338377476 1.845410227775574 0.007873663678765297 1.844958543777466 0.007908010855317116 1.844518542289734 C 0.007959511131048203 1.843858480453491 0.008007531985640526 1.843251943588257 0.008059675805270672 1.842592120170593 C 0.008094441145658493 1.842152118682861 0.008127983659505844 1.841725945472717 0.008163033984601498 1.841286063194275 C 0.008210369385778904 1.840692281723022 0.008259106427431107 1.840087652206421 0.008306962437927723 1.839493989944458 C 0.008345135487616062 1.839020490646362 0.00838463194668293 1.838529109954834 0.008423137478530407 1.838055610656738 C 0.008471397683024406 1.837462067604065 0.008512242697179317 1.836965441703796 0.008561024442315102 1.836372017860413 C 0.00860271044075489 1.835864901542664 0.008646503090858459 1.835331320762634 0.008688570000231266 1.834824204444885 C 0.008737755939364433 1.834230899810791 0.008786748163402081 1.833646893501282 0.008836453780531883 1.833053827285767 C 0.008873284794390202 1.832614421844482 0.008911145851016045 1.832162261009216 0.008948261849582195 1.831722974777222 C 0.009003940038383007 1.831064105033875 0.009053048677742481 1.830488324165344 0.009109368547797203 1.829829573631287 C 0.009146900847554207 1.829390406608582 0.009187699295580387 1.82891309261322 0.009225517511367798 1.828473925590515 C 0.009276608936488628 1.827881217002869 0.009329507127404213 1.827271819114685 0.009381118230521679 1.826679229736328 C 0.009422269649803638 1.82620644569397 0.009461573325097561 1.825755000114441 0.009503055363893509 1.825282335281372 C 0.009555069729685783 1.824689865112305 0.00960736908018589 1.824097871780396 0.009659902192652225 1.823505640029907 C 0.009701808914542198 1.823033094406128 0.009745623916387558 1.822539329528809 0.009787860326468945 1.822066903114319 C 0.009840796701610088 1.821474671363831 0.009897223673760891 1.820847868919373 0.009950677864253521 1.820255875587463 C 0.00999029166996479 1.819817304611206 0.01003054901957512 1.819371938705444 0.01007044687867165 1.818933486938477 C 0.01012430526316166 1.818341493606567 0.01018437463790178 1.81768536567688 0.01023875083774328 1.81709361076355 C 0.01028214208781719 1.816621422767639 0.01032890006899834 1.81611430644989 0.01037262100726366 1.815642237663269 C 0.01042136363685131 1.815116405487061 0.0104778753593564 1.814509153366089 0.01052702683955431 1.81398344039917 C 0.01057429984211922 1.813477754592896 0.01062270812690258 1.812961459159851 0.01067035831511021 1.812456011772156 C 0.01071991957724094 1.811930298805237 0.01078180782496929 1.81127655506134 0.01083177700638771 1.810751080513 C 0.01087665092200041 1.810279369354248 0.0109262652695179 1.809759736061096 0.01097146794199944 1.809288144111633 C 0.01102814357727766 1.808696985244751 0.01108501851558685 1.808105826377869 0.01114221103489399 1.807514905929565 C 0.01118457689881325 1.807077050209045 0.01123046223074198 1.806604623794556 0.01127311214804649 1.806166887283325 C 0.01133070606738329 1.805576086044312 0.01139541063457727 1.804914116859436 0.01145352050662041 1.804323434829712 C 0.01149987429380417 1.803852200508118 0.01154517754912376 1.803394198417664 0.01159185916185379 1.802922964096069 C 0.01165037043392658 1.802332401275635 0.0117066279053688 1.801766157150269 0.01176565513014793 1.801175713539124 C 0.01181609835475683 1.800671100616455 0.01186093501746655 1.800225138664246 0.01191175542771816 1.799720525741577 C 0.01197118405252695 1.799130201339722 0.01202462799847126 1.798600554466248 0.01208457257598639 1.798010349273682 C 0.01213581953197718 1.797505855560303 0.01218543201684952 1.797020435333252 0.01223705522716045 1.796516060829163 C 0.01229074597358704 1.795991539955139 0.01236041914671659 1.7953120470047 0.01241451688110828 1.794787764549255 C 0.01245962735265493 1.794350743293762 0.01250872761011124 1.793878078460693 0.01255412027239799 1.79344117641449 C 0.01262218784540892 1.79278576374054 0.01268266048282385 1.792204737663269 0.01275136321783066 1.791549563407898 C 0.0127936452627182 1.791146397590637 0.01284030638635159 1.790704607963562 0.01288282871246338 1.790301561355591 C 0.01295191235840321 1.789646506309509 0.01301534287631512 1.789046049118042 0.01308506168425083 1.78839123249054 C 0.01313154026865959 1.787954568862915 0.01317722722887993 1.787528991699219 0.0132239880040288 1.787092447280884 C 0.01328713446855545 1.786503314971924 0.013361188583076 1.785812497138977 0.01342484913766384 1.785223364830017 C 0.01347202248871326 1.784786939620972 0.01351935043931007 1.784352660179138 0.01356680598109961 1.783916354179382 C 0.01363086514174938 1.783327341079712 0.01370755583047867 1.782622694969177 0.01377212908118963 1.782033920288086 C 0.01381997484713793 1.78159773349762 0.01386274956166744 1.781211495399475 0.01391087658703327 1.780775427818298 C 0.01397584844380617 1.780186653137207 0.01405655965209007 1.779455661773682 0.01412204466760159 1.778867125511169 C 0.01417058333754539 1.778431177139282 0.01422004029154778 1.777991056442261 0.01426885928958654 1.777555108070374 C 0.01434206403791904 1.776901364326477 0.01440287102013826 1.776357531547546 0.01447670813649893 1.775703907012939 C 0.01452591735869646 1.775268077850342 0.01457237917929888 1.774860858917236 0.01462186966091394 1.774425148963928 C 0.01469608675688505 1.773771643638611 0.01476486958563328 1.773165225982666 0.01483971904963255 1.772511959075928 C 0.01488578133285046 1.772109866142273 0.0149296410381794 1.77173125743866 0.01497594360262156 1.771329164505005 C 0.0150511721149087 1.770676016807556 0.01513215713202953 1.769972562789917 0.01520801801234484 1.769319534301758 C 0.01524304412305355 1.769018054008484 0.01528287120163441 1.768679022789001 0.01531803142279387 1.768377661705017 C 0.0154094435274601 1.7675940990448 0.01549198105931282 1.766886472702026 0.01558430213481188 1.766103267669678 C 0.01560797169804573 1.765902400016785 0.01563526690006256 1.765673637390137 0.01565899699926376 1.765472769737244 C 0.01575925759971142 1.764624357223511 0.015857158228755 1.763797402381897 0.01595848426222801 1.762949347496033 C 0.01598246395587921 1.762748599052429 0.01600565575063229 1.762557148933411 0.01602969504892826 1.762356400489807 C 0.01613126695156097 1.761508464813232 0.01623320579528809 1.760658502578735 0.01633584313094616 1.75981080532074 C 0.01636013016104698 1.759610176086426 0.01638567261397839 1.759402275085449 0.01641001924872398 1.759201645851135 C 0.01738345809280872 1.751181721687317 0.01840472221374512 1.7431720495224 0.01947319135069847 1.735181570053101 C 0.01949546299874783 1.735014915466309 0.01951292902231216 1.734882593154907 0.0195352416485548 1.734715938568115 C 0.01965703256428242 1.733806490898132 0.01978265680372715 1.732875823974609 0.01990567333996296 1.731966853141785 C 0.01991919800639153 1.731866955757141 0.01994031295180321 1.731709599494934 0.01995385251939297 1.731609702110291 C 0.0200770441442728 1.730700731277466 0.02019167505204678 1.729860901832581 0.02031609229743481 1.728952288627625 C 0.02033888176083565 1.728785872459412 0.02036014199256897 1.728628873825073 0.02038297243416309 1.72846245765686 C 0.02049866504967213 1.727618813514709 0.02060510590672493 1.726848959922791 0.02072185464203358 1.726005673408508 C 0.02075409516692162 1.725772738456726 0.02078933082520962 1.725516676902771 0.02082164958119392 1.725283741950989 C 0.02092071250081062 1.724570274353027 0.02103390358388424 1.723760366439819 0.02113372087478638 1.723047137260437 C 0.02117561548948288 1.722747802734375 0.02122136577963829 1.722419261932373 0.02126339264214039 1.722119927406311 C 0.02136355452239513 1.721406817436218 0.02147689089179039 1.720605492591858 0.02157780714333057 1.719892621040344 C 0.02162486501038074 1.719560146331787 0.02165783382952213 1.71932578086853 0.02170505560934544 1.718993425369263 C 0.02181552164256573 1.718215823173523 0.02191566117107868 1.717515468597412 0.02202702313661575 1.716738104820251 C 0.02206984721124172 1.716439127922058 0.02210752293467522 1.716174602508545 0.02215048111975193 1.715875744819641 C 0.02226214297115803 1.71509850025177 0.02237210422754288 1.714338183403015 0.0224846638739109 1.713561177253723 C 0.02252314798533916 1.713295578956604 0.02256428450345993 1.713010668754578 0.0226028747856617 1.712745070457458 C 0.0227157324552536 1.711968183517456 0.02280951850116253 1.711326479911804 0.02292327396571636 1.71054995059967 C 0.02297187224030495 1.710218071937561 0.0230178851634264 1.709902882575989 0.02306664735078812 1.709571003913879 C 0.02317126467823982 1.708859324455261 0.02327955886721611 1.708126187324524 0.02338492684066296 1.707414746284485 C 0.02343404851853848 1.707082986831665 0.02348003536462784 1.706771612167358 0.02352932095527649 1.706439971923828 C 0.02363503165543079 1.705728530883789 0.02373881824314594 1.705033302307129 0.02384528145194054 1.704322099685669 C 0.02389490976929665 1.703990578651428 0.02394812740385532 1.70363450050354 0.02399791963398457 1.703302979469299 C 0.02410472370684147 1.702591896057129 0.0242097731679678 1.701895952224731 0.02431732788681984 1.70118510723114 C 0.02437247708439827 1.700820565223694 0.02441811561584473 1.700518608093262 0.02447346039116383 1.700154185295105 C 0.02457154914736748 1.69950807094574 0.02467810735106468 1.698809504508972 0.02477681636810303 1.698163628578186 C 0.02483758516609669 1.697766184806824 0.0248976182192564 1.697373390197754 0.02495862171053886 1.696975946426392 C 0.02506761066615582 1.696265578269958 0.0251570139080286 1.695685982704163 0.02526675164699554 1.694975852966309 C 0.02532302960753441 1.694611668586731 0.02537689171731472 1.694263219833374 0.02543336898088455 1.693899154663086 C 0.0255434475839138 1.693189144134521 0.02565229125320911 1.692490458488464 0.02576312050223351 1.691780686378479 C 0.02580963633954525 1.691482901573181 0.02586056664586067 1.691156983375549 0.02590721473097801 1.690859198570251 C 0.02602848969399929 1.690085053443909 0.02614044956862926 1.689373254776001 0.02626261487603188 1.688599467277527 C 0.02630960009992123 1.688301801681519 0.02635318599641323 1.688026070594788 0.02640030346810818 1.687728404998779 C 0.02651256136596203 1.687019228935242 0.02663110382854939 1.686273336410522 0.02674411050975323 1.685564398765564 C 0.02679681964218616 1.68523383140564 0.02684968896210194 1.684902667999268 0.02690256014466286 1.684572219848633 C 0.02701597474515438 1.683863282203674 0.02713482826948166 1.683122396469116 0.02724898979067802 1.682413816452026 C 0.0273022036999464 1.682083368301392 0.02735087648034096 1.681782126426697 0.02740425243973732 1.681451678276062 C 0.02751875482499599 1.680743217468262 0.0276317410171032 1.6800457239151 0.02774698846042156 1.679337382316589 C 0.02780607715249062 1.678974151611328 0.0278495792299509 1.678707480430603 0.02790886349976063 1.678344368934631 C 0.0280244518071413 1.67763614654541 0.0281517282128334 1.67685854434967 0.02826806344091892 1.676150560379028 C 0.02831688895821571 1.675853490829468 0.02836427837610245 1.675566077232361 0.02841323614120483 1.67526912689209 C 0.02852991037070751 1.674561262130737 0.02865508571267128 1.673803567886353 0.02877250500023365 1.673096060752869 C 0.02882178500294685 1.672799110412598 0.02888332866132259 1.672429442405701 0.02893273904919624 1.672132611274719 C 0.0290612019598484 1.671360850334167 0.02917611412703991 1.670671939849854 0.02930546551942825 1.66990053653717 C 0.02934968285262585 1.669636726379395 0.02939463965594769 1.669369697570801 0.02943896129727364 1.669106006622314 C 0.02955780364573002 1.668398857116699 0.02969978749752045 1.667555928230286 0.02981937490403652 1.666849136352539 C 0.02986957132816315 1.666552543640137 0.02992185950279236 1.666244864463806 0.02997218817472458 1.665948271751404 C 0.03010301478207111 1.665177345275879 0.03022371418774128 1.664467453956604 0.0303554255515337 1.663696765899658 C 0.03040046058595181 1.663433194160461 0.03045369125902653 1.663123250007629 0.03049882873892784 1.662859797477722 C 0.03061983548104763 1.662153482437134 0.03075327165424824 1.661376237869263 0.03087502159178257 1.660670042037964 C 0.03093747608363628 1.660308003425598 0.03098946623504162 1.660008311271667 0.031052116304636 1.659646272659302 C 0.03117427229881287 1.658940315246582 0.03129798918962479 1.658225893974304 0.03142088651657104 1.657520174980164 C 0.03147244825959206 1.657224059104919 0.03152796998620033 1.656907200813293 0.03157966583967209 1.656611084938049 C 0.03170290216803551 1.655905485153198 0.03183640539646149 1.655141592025757 0.031960379332304 1.654436230659485 C 0.03201817348599434 1.654107332229614 0.03206463903188705 1.653844833374023 0.03212259709835052 1.653516054153442 C 0.0322469100356102 1.65281081199646 0.03238888829946518 1.652006030082703 0.03251394629478455 1.651301026344299 C 0.03256642445921898 1.651005148887634 0.0326128788292408 1.650745391845703 0.03266549110412598 1.650449514389038 C 0.03279088065028191 1.649744749069214 0.03293421491980553 1.648939490318298 0.03306034579873085 1.648234963417053 C 0.0331132747232914 1.647939205169678 0.03315684571862221 1.647697925567627 0.0332099050283432 1.647402286529541 C 0.03335928916931152 1.646569609642029 0.03348786383867264 1.645853996276855 0.03363827988505363 1.645021796226501 C 0.03365014865994453 1.644956111907959 0.03366711735725403 1.64486289024353 0.03367898985743523 1.644797205924988 C 0.03385264053940773 1.643836975097656 0.03401974961161613 1.642915725708008 0.03419477492570877 1.641955971717834 C 0.03421272709965706 1.641857504844666 0.03422295302152634 1.641802191734314 0.03424092009663582 1.641703724861145 C 0.03645909205079079 1.629546761512756 0.03879297524690628 1.617402791976929 0.04123064130544662 1.605322957038879 C 0.04124380275607109 1.605257749557495 0.04125183820724487 1.605217576026917 0.04126500338315964 1.605152368545532 C 0.04145754128694534 1.604198694229126 0.04166286438703537 1.603186249732971 0.04185676202178001 1.602233171463013 C 0.04186339303851128 1.602200508117676 0.04187572374939919 1.602139592170715 0.04188235476613045 1.602107048034668 C 0.04206341132521629 1.60121750831604 0.04224118962883949 1.600348114967346 0.04242343083024025 1.599459052085876 C 0.04245681315660477 1.599296092987061 0.04248972982168198 1.599134683609009 0.04252314940094948 1.598971843719482 C 0.04269260913133621 1.598146319389343 0.04288964718580246 1.597190380096436 0.04306012764573097 1.596365213394165 C 0.04308703169226646 1.596235036849976 0.04312176257371902 1.596066236495972 0.0431486964225769 1.595936059951782 C 0.04331941157579422 1.595110893249512 0.04351873323321342 1.594151139259338 0.04369046911597252 1.593326449394226 C 0.04372434690594673 1.593163728713989 0.04375113546848297 1.593034386634827 0.04378505423665047 1.592871785163879 C 0.0439702533185482 1.591983675956726 0.0441855676472187 1.590954899787903 0.04437194764614105 1.590067267417908 C 0.04438560456037521 1.590002298355103 0.04439389333128929 1.589962482452393 0.04440755397081375 1.589897513389587 C 0.04460733756422997 1.588946461677551 0.04479530453681946 1.588055491447449 0.04499644413590431 1.58710503578186 C 0.04501707479357719 1.587007522583008 0.04503950849175453 1.586901068687439 0.04506015405058861 1.586803674697876 C 0.04524805396795273 1.585916519165039 0.04546043276786804 1.584917426109314 0.04564950987696648 1.584030747413635 C 0.0456702895462513 1.583933353424072 0.045683603733778 1.583870649337769 0.04570439830422401 1.583773136138916 C 0.04589356109499931 1.582886576652527 0.04608329012989998 1.582001328468323 0.04627362638711929 1.581115126609802 C 0.0463084988296032 1.580952763557434 0.04634015262126923 1.580805063247681 0.04637506231665611 1.580642819404602 C 0.04655203968286514 1.579819917678833 0.04674578458070755 1.578922629356384 0.04692377895116806 1.578100085258484 C 0.04696591570973396 1.577905416488647 0.04699348285794258 1.577777743339539 0.04703567922115326 1.577583074569702 C 0.04721390455961227 1.576760768890381 0.04739755764603615 1.575916409492493 0.04757679998874664 1.57509446144104 C 0.04761923104524612 1.574899911880493 0.0476643480360508 1.574692845344543 0.04770683497190475 1.574498295783997 C 0.04790011793375015 1.573613166809082 0.04806041717529297 1.572881698608398 0.04825487360358238 1.571996927261353 C 0.04829048365354538 1.571834921836853 0.04832855239510536 1.571661591529846 0.04836420342326164 1.571499586105347 C 0.04855882748961449 1.57061493396759 0.04873299598693848 1.569825887680054 0.04892879724502563 1.568941712379456 C 0.04896465316414833 1.568779706954956 0.04900120943784714 1.568614602088928 0.04903710633516312 1.568452715873718 C 0.04923307523131371 1.56756854057312 0.04941863566637039 1.566734075546265 0.049615778028965 1.565850377082825 C 0.04964466392993927 1.565720915794373 0.04967259988188744 1.565595746040344 0.0497015081346035 1.565466284751892 C 0.04989881813526154 1.564582586288452 0.05009139329195023 1.563722848892212 0.05028987675905228 1.56283962726593 C 0.05032622814178467 1.56267786026001 0.05035809800028801 1.562536239624023 0.05039449036121368 1.562374472618103 C 0.05059313774108887 1.561491250991821 0.05077542364597321 1.560683727264404 0.0509752444922924 1.559800982475281 C 0.05100452527403831 1.559671640396118 0.05104688555002213 1.559484720230103 0.05107619613409042 1.55935537815094 C 0.05127618089318275 1.558472752571106 0.05146697908639908 1.557633399963379 0.05166813731193542 1.556751251220703 C 0.05169761553406715 1.556621909141541 0.05173596367239952 1.556454062461853 0.05176546797156334 1.55632472038269 C 0.05196679383516312 1.555442690849304 0.05216594785451889 1.554572820663452 0.05236844345927238 1.553691148757935 C 0.05239070206880569 1.55359423160553 0.05242786556482315 1.553432583808899 0.05245013907551765 1.553335785865784 C 0.05265279859304428 1.552454113960266 0.05285452678799629 1.551578998565674 0.05305835604667664 1.550697803497314 C 0.05309568718075752 1.550536394119263 0.05312864482402802 1.550394415855408 0.05316601693630219 1.550233006477356 C 0.05335551872849464 1.549414873123169 0.05358579009771347 1.548423290252686 0.05377629771828651 1.547605514526367 C 0.0537988506257534 1.547508716583252 0.05381988734006882 1.547418713569641 0.0538424514234066 1.547321915626526 C 0.05406244844198227 1.546378374099731 0.05426738783717155 1.545501708984375 0.05448872596025467 1.544558763504028 C 0.05450385808944702 1.544494271278381 0.05452560633420944 1.544401884078979 0.05454074591398239 1.544337391853333 C 0.05476216971874237 1.543394327163696 0.05499264597892761 1.542415618896484 0.05521540716290474 1.541473150253296 C 0.05521540716290474 1.541473150253296 0.0552196092903614 1.541455388069153 0.0552196092903614 1.541455388069153 C 0.1450826078653336 1.161267995834351 0.3437738120555878 0.8226693272590637 0.6164506077766418 0.5604819655418396 L 1.30955958366394 1.281320929527283 C 1.111099600791931 1.472140908241272 1.001799583435059 1.727940917015076 1.001799583435059 2.001600980758667 L 1.001799583435059 4.391581058502197 Z M 7.250399589538574 1.001800894737244 L 3.470749616622925 1.001800894737244 L 3.470749616622925 0.001800946076400578 C 3.470749616622925 0.001800946076400578 7.250399589538574 0.001800946076400578 7.250399589538574 0.001800946076400578 L 7.250399589538574 1.001800894737244 Z M 7.250399589538574 7.222150802612305 L 6.250399589538574 7.222150802612305 L 6.250399589538574 3.222151041030884 L 7.250399589538574 3.222151041030884 L 7.250399589538574 7.222150802612305 Z M 7.250399589538574 14.2221508026123 L 6.250399589538574 14.2221508026123 L 6.250399589538574 10.2221508026123 L 7.250399589538574 10.2221508026123 L 7.250399589538574 14.2221508026123 Z" stroke="none" fill="#81a3cc" id="right-diff"/>
      </g>
    </g>
  </g>
</svg>
