<svg xmlns="http://www.w3.org/2000/svg" width="16.268" height="21.356" viewBox="0 0 16.268 21.356">
  <g id="google-docs" transform="translate(-61)">
    <path id="Path_1788" data-name="Path 1788" d="M77.084,5.189,72.079.183A.627.627,0,0,0,71.636,0H62.877A1.879,1.879,0,0,0,61,1.877v17.6a1.879,1.879,0,0,0,1.877,1.877H75.391a1.879,1.879,0,0,0,1.877-1.877V5.631A.631.631,0,0,0,77.084,5.189ZM72.262,2.136l2.869,2.869H72.888a.626.626,0,0,1-.626-.626Zm3.128,17.969H62.877a.626.626,0,0,1-.626-.626V1.877a.626.626,0,0,1,.626-.626h8.134V4.38a1.879,1.879,0,0,0,1.877,1.877h3.128V19.479A.626.626,0,0,1,75.391,20.105Z" transform="translate(0 0)" fill="#80a2ce"/>
    <path id="Path_1789" data-name="Path 1789" d="M159.134,212h-7.508a.626.626,0,1,0,0,1.251h7.508a.626.626,0,0,0,0-1.251Z" transform="translate(-86.246 -203.157)" fill="#80a2ce"/>
    <path id="Path_1790" data-name="Path 1790" d="M159.134,272h-7.508a.626.626,0,1,0,0,1.251h7.508a.626.626,0,1,0,0-1.251Z" transform="translate(-86.246 -260.654)" fill="#80a2ce"/>
    <path id="Path_1791" data-name="Path 1791" d="M159.134,332h-7.508a.626.626,0,1,0,0,1.251h7.508a.626.626,0,1,0,0-1.251Z" transform="translate(-86.246 -318.152)" fill="#80a2ce"/>
    <path id="Path_1792" data-name="Path 1792" d="M156.631,392h-5.005a.626.626,0,0,0,0,1.251h5.005a.626.626,0,1,0,0-1.251Z" transform="translate(-86.246 -375.649)" fill="#80a2ce"/>
  </g>
</svg>
