<svg xmlns="http://www.w3.org/2000/svg" width="17" height="17.002" viewBox="0 0 17 17.002">
  <g id="Solid" transform="translate(-24 -23.997)">
    <path id="Path_2656" data-name="Path 2656" d="M142.992,32.661l1.815,1.816v-9.6a.88.88,0,1,1,1.759,0v9.6l1.815-1.815a.88.88,0,0,1,1.244,1.244l-3.316,3.316a.879.879,0,0,1-1.244,0l-3.316-3.316a.88.88,0,0,1,1.244-1.244Z" transform="translate(-113.186 0)" fill="#81a3cc"/>
    <path id="Path_2657" data-name="Path 2657" d="M40.121,232a.879.879,0,0,0-.879.879v6.741H25.759v-6.741a.88.88,0,0,0-1.759,0v7.034a1.466,1.466,0,0,0,1.466,1.466H39.534A1.466,1.466,0,0,0,41,239.914V232.88a.879.879,0,0,0-.879-.88Z" transform="translate(0 -200.38)" fill="#81a3cc"/>
  </g>
</svg>
