<svg id="Component_25_1" data-name="Component 25 – 1" xmlns="http://www.w3.org/2000/svg" width="19" height="19" viewBox="0 0 19 19">
  <g id="Group_424" data-name="Group 424" transform="translate(-382.498 -11.885)">
    <g id="Rectangle_315" data-name="Rectangle 315" transform="translate(382.498 11.885)" fill="none" stroke="#81a3cc" stroke-width="1">
      <rect width="7" height="7" stroke="none"/>
      <rect x="0.5" y="0.5" width="6" height="6" fill="none"/>
    </g>
    <g id="Rectangle_316" data-name="Rectangle 316" transform="translate(388.498 11.885)" fill="none" stroke="#81a3cc" stroke-width="1">
      <rect width="7" height="7" stroke="none"/>
      <rect x="0.5" y="0.5" width="6" height="6" fill="none"/>
    </g>
    <g id="Group_423" data-name="Group 423" transform="translate(382 12)">
      <g id="Rectangle_317" data-name="Rectangle 317" transform="translate(12.498 -0.115)" fill="none" stroke="#81a3cc" stroke-width="1">
        <rect width="7" height="7" stroke="none"/>
        <rect x="0.5" y="0.5" width="6" height="6" fill="none"/>
      </g>
      <g id="Rectangle_318" data-name="Rectangle 318" transform="translate(0.498 5.885)" fill="none" stroke="#81a3cc" stroke-width="1">
        <rect width="7" height="7" stroke="none"/>
        <rect x="0.5" y="0.5" width="6" height="6" fill="none"/>
      </g>
      <g id="Rectangle_319" data-name="Rectangle 319" transform="translate(6.498 5.885)" fill="none" stroke="#81a3cc" stroke-width="1">
        <rect width="7" height="7" stroke="none"/>
        <rect x="0.5" y="0.5" width="6" height="6" fill="none"/>
      </g>
      <g id="Rectangle_320" data-name="Rectangle 320" transform="translate(12.498 5.885)" fill="none" stroke="#81a3cc" stroke-width="1">
        <rect width="7" height="7" stroke="none"/>
        <rect x="0.5" y="0.5" width="6" height="6" fill="none"/>
      </g>
      <g id="Rectangle_321" data-name="Rectangle 321" transform="translate(0.498 11.885)" fill="none" stroke="#81a3cc" stroke-width="1">
        <rect width="7" height="7" stroke="none"/>
        <rect x="0.5" y="0.5" width="6" height="6" fill="none"/>
      </g>
      <g id="Rectangle_322" data-name="Rectangle 322" transform="translate(6.498 11.885)" fill="none" stroke="#81a3cc" stroke-width="1">
        <rect width="7" height="7" stroke="none"/>
        <rect x="0.5" y="0.5" width="6" height="6" fill="none"/>
      </g>
      <g id="Rectangle_323" data-name="Rectangle 323" transform="translate(12.498 11.885)" fill="none" stroke="#81a3cc" stroke-width="1">
        <rect width="7" height="7" stroke="none"/>
        <rect x="0.5" y="0.5" width="6" height="6" fill="none"/>
      </g>
    </g>
  </g>
</svg>
