<svg xmlns="http://www.w3.org/2000/svg" width="20.184" height="20.186" viewBox="0 0 20.184 20.186">
  <path id="home" d="M20.142,8.78l0,0L11.906.544a1.858,1.858,0,0,0-2.628,0l-8.23,8.23-.008.008a1.858,1.858,0,0,0,1.237,3.166l.057,0h.328v6.06a2.178,2.178,0,0,0,2.175,2.175H8.058a.591.591,0,0,0,.591-.591V14.844a.993.993,0,0,1,.992-.992h1.9a.993.993,0,0,1,.992.992V19.6a.591.591,0,0,0,.591.591h3.222a2.177,2.177,0,0,0,2.175-2.175v-6.06h.3A1.859,1.859,0,0,0,20.142,8.78ZM19.3,10.571a.671.671,0,0,1-.478.2h-.9a.591.591,0,0,0-.591.591v6.651a.993.993,0,0,1-.992.992h-2.63v-4.16a2.178,2.178,0,0,0-2.175-2.175h-1.9a2.178,2.178,0,0,0-2.175,2.175V19H4.836a.993.993,0,0,1-.992-.992V11.36a.591.591,0,0,0-.591-.591H2.345a.675.675,0,0,1-.465-1.152h0l8.234-8.234a.675.675,0,0,1,.955,0L19.3,9.613l0,0A.677.677,0,0,1,19.3,10.571Zm0,0" transform="translate(-0.499)" fill="#81a3cc"/>
</svg>
