<svg id="Component_8_22" data-name="Component 8 – 22" xmlns="http://www.w3.org/2000/svg" width="11" height="11" viewBox="0 0 11 11">
  <path id="Path_1805" data-name="Path 1805" d="M5.5,0A5.5,5.5,0,1,1,0,5.5,5.5,5.5,0,0,1,5.5,0Z" fill="#81a3cc"/>
  <path id="Path_2653" data-name="Path 2653" d="M1.758-6.662A1.158,1.158,0,0,1,1-6.864a.714.714,0,0,1-.234-.571.791.791,0,0,1,.3-.636,1.292,1.292,0,0,1,.85-.249,1.176,1.176,0,0,1,.8.214.722.722,0,0,1,.234.56.814.814,0,0,1-.281.633A1.332,1.332,0,0,1,1.758-6.662ZM2.83-.8h.691a.933.933,0,0,1,.1.434.391.391,0,0,1-.085.287A.488.488,0,0,1,3.205,0H.393a1.237,1.237,0,0,1-.1-.463A.351.351,0,0,1,.375-.724.37.37,0,0,1,.639-.8h.48q.029-.75.029-1.6,0-1.295-.021-1.72a2.331,2.331,0,0,0-.091-.621A.366.366,0,0,0,.82-4.989a1.4,1.4,0,0,0-.428-.05.719.719,0,0,1-.1-.381.369.369,0,0,1,.27-.4,4.95,4.95,0,0,1,1.1-.076,4.965,4.965,0,0,1,.847.047q.226.047.258.185a1.773,1.773,0,0,1,.032.384V-2.4Q2.8-1.553,2.83-.8Z" transform="translate(3.7 9.5)" fill="#362d6d"/>
</svg>
