<svg xmlns="http://www.w3.org/2000/svg" width="123.084" height="19.475" viewBox="0 0 123.084 19.475">
  <g id="Group_18" data-name="Group 18" transform="translate(-7404.528 -479)">
    <g id="arrow-refresh-transfer-user_interface-interface" data-name="arrow-refresh-transfer-user interface-interface" transform="translate(7400.528 475.005)">
      <path id="Path_29" data-name="Path 29" d="M23.127,33.333a1.016,1.016,0,0,0-.768-.356h-.04a1.054,1.054,0,0,0-1.031.91,7.529,7.529,0,0,1-5.552,6.147,7.672,7.672,0,0,1-8.273-3.025.348.348,0,0,1,.286-.546H9.563a.7.7,0,1,0,0-1.391H4v5.563a.7.7,0,0,0,1.391,0V38.778a.348.348,0,0,1,.623-.211,9.736,9.736,0,0,0,17.342-4.423,1.008,1.008,0,0,0-.229-.811Z" transform="translate(0 -18.904)" fill="#fff"/>
      <path id="Path_30" data-name="Path 30" d="M18.116,11.3H23.68V5.735a.7.7,0,0,0-1.391,0V7.592a.348.348,0,0,1-.623.211A9.736,9.736,0,0,0,4.33,12.179a1.044,1.044,0,1,0,2.064.307A7.647,7.647,0,0,1,20.217,9.362a.348.348,0,0,1-.286.546H18.116a.7.7,0,1,0,0,1.391Z" transform="translate(-0.207 0)" fill="#fff"/>
    </g>
    <path id="Path_31" data-name="Path 31" d="M2.387-8.008v6.776H6.336V0H1.1V-8.008Zm5,5.632a2.454,2.454,0,0,1,.336-1.265,2.376,2.376,0,0,1,.929-.9,2.776,2.776,0,0,1,1.353-.325,2.744,2.744,0,0,1,1.347.325,2.282,2.282,0,0,1,.907.891,2.544,2.544,0,0,1,.319,1.27,2.544,2.544,0,0,1-.319,1.271,2.319,2.319,0,0,1-.907.9A2.73,2.73,0,0,1,10,.121a2.915,2.915,0,0,1-1.342-.3,2.238,2.238,0,0,1-.929-.869A2.553,2.553,0,0,1,7.392-2.376Zm1.243.011A1.5,1.5,0,0,0,9.02-1.314a1.241,1.241,0,0,0,.957.423,1.256,1.256,0,0,0,.974-.418,1.511,1.511,0,0,0,.379-1.056,1.531,1.531,0,0,0-.379-1.062,1.248,1.248,0,0,0-.974-.423,1.227,1.227,0,0,0-.957.434A1.529,1.529,0,0,0,8.635-2.365Zm10.12-2.288V0H17.523V-.671a2.573,2.573,0,0,1-.682.545,1.968,1.968,0,0,1-1,.247,2.516,2.516,0,0,1-1.2-.281,2.048,2.048,0,0,1-.836-.831A2.686,2.686,0,0,1,13.5-2.321a2.719,2.719,0,0,1,.319-1.337,2.294,2.294,0,0,1,.852-.891,2.27,2.27,0,0,1,1.172-.313,1.9,1.9,0,0,1,1.694.836l.088-.627ZM16.181-.891a1.385,1.385,0,0,0,.853-.258,1.377,1.377,0,0,0,.489-.732V-2.893a1.286,1.286,0,0,0-.511-.693,1.494,1.494,0,0,0-.875-.264,1.339,1.339,0,0,0-.99.412,1.433,1.433,0,0,0-.407,1.051,1.484,1.484,0,0,0,.2.759,1.489,1.489,0,0,0,.528.539A1.365,1.365,0,0,0,16.181-.891Zm9.24-7.689V0H24.189V-.627a2.532,2.532,0,0,1-1.826.748,2.263,2.263,0,0,1-1.171-.308,2.139,2.139,0,0,1-.819-.88,2.849,2.849,0,0,1-.3-1.331,2.663,2.663,0,0,1,.313-1.32,2.093,2.093,0,0,1,.869-.852,2.669,2.669,0,0,1,1.259-.292,2.412,2.412,0,0,1,.957.193,1.89,1.89,0,0,1,.726.523V-8.58ZM22.759-.924a1.524,1.524,0,0,0,.9-.264,1.4,1.4,0,0,0,.528-.737v-.99a1.321,1.321,0,0,0-.523-.7,1.536,1.536,0,0,0-.907-.275,1.394,1.394,0,0,0-.715.193,1.458,1.458,0,0,0-.528.528,1.454,1.454,0,0,0-.2.753,1.484,1.484,0,0,0,.2.759,1.489,1.489,0,0,0,.528.539A1.365,1.365,0,0,0,22.759-.924Zm5.588-3.729V0H27.115V-4.653ZM27.06-6.314a.6.6,0,0,1,.22-.468.732.732,0,0,1,.5-.192.7.7,0,0,1,.479.192.605.605,0,0,1,.215.468.589.589,0,0,1-.215.462.71.71,0,0,1-.479.187.744.744,0,0,1-.5-.187A.583.583,0,0,1,27.06-6.314Zm6.017,1.463a1.561,1.561,0,0,1,1.083.391,1.325,1.325,0,0,1,.445,1.006V0H33.374V-3.014a.9.9,0,0,0-.215-.572.779.779,0,0,0-.577-.22,1.13,1.13,0,0,0-.941.489,2.019,2.019,0,0,0-.368,1.249V0H30.041V-4.653h1.111l.088.825a1.811,1.811,0,0,1,.732-.754A2.214,2.214,0,0,1,33.077-4.851Zm8.261.2V.022a2.073,2.073,0,0,1-.346,1.171,2.381,2.381,0,0,1-.968.825,3.163,3.163,0,0,1-1.4.3,2.985,2.985,0,0,1-1.265-.236A4.428,4.428,0,0,1,36.333,1.4L37.059.55a3.049,3.049,0,0,0,.715.512,1.82,1.82,0,0,0,.825.181A1.659,1.659,0,0,0,39.688.908,1.145,1.145,0,0,0,40.106,0V-.781a1.742,1.742,0,0,1-.721.655,2.4,2.4,0,0,1-1.116.247A2.24,2.24,0,0,1,37.092-.2a2.385,2.385,0,0,1-.858-.891,2.522,2.522,0,0,1-.319-1.26,2.5,2.5,0,0,1,.335-1.281,2.446,2.446,0,0,1,.891-.9,2.307,2.307,0,0,1,1.182-.325,2.686,2.686,0,0,1,1.062.2,1.682,1.682,0,0,1,.721.534l.1-.528ZM38.632-.891a1.62,1.62,0,0,0,.93-.264,1.377,1.377,0,0,0,.544-.715V-2.882a1.372,1.372,0,0,0-.55-.7,1.627,1.627,0,0,0-.924-.264,1.446,1.446,0,0,0-1.051.412,1.4,1.4,0,0,0-.423,1.051,1.484,1.484,0,0,0,.2.759,1.475,1.475,0,0,0,.534.539A1.434,1.434,0,0,0,38.632-.891Zm10.956-3.96a1.561,1.561,0,0,1,1.083.391,1.325,1.325,0,0,1,.445,1.006V0H49.885V-3.014a.9.9,0,0,0-.215-.572.779.779,0,0,0-.577-.22,1.126,1.126,0,0,0-.941.495,2.024,2.024,0,0,0-.368,1.243V0H46.552V-8.58h1.21v4.719a1.971,1.971,0,0,1,.732-.72A2.153,2.153,0,0,1,49.588-4.851Zm4.455.2V0H52.811V-4.653ZM52.756-6.314a.6.6,0,0,1,.22-.468.732.732,0,0,1,.495-.192.7.7,0,0,1,.479.192.605.605,0,0,1,.215.468.589.589,0,0,1-.215.462.71.71,0,0,1-.479.187.744.744,0,0,1-.495-.187A.583.583,0,0,1,52.756-6.314ZM57.134.1a2.7,2.7,0,0,1-1.017-.192,2.032,2.032,0,0,1-.787-.545l.517-.693a1.71,1.71,0,0,0,1.188.572,1.059,1.059,0,0,0,.544-.127.413.413,0,0,0,.215-.379.432.432,0,0,0-.22-.4,2.2,2.2,0,0,0-.489-.215l-.347-.1a1.845,1.845,0,0,1-.9-.544,1.276,1.276,0,0,1-.3-.842,1.424,1.424,0,0,1,.193-.72,1.425,1.425,0,0,1,.583-.545,1.994,1.994,0,0,1,.951-.209,3.116,3.116,0,0,1,.918.121,2.3,2.3,0,0,1,.732.385l-.473.737a1.468,1.468,0,0,0-.479-.3A1.415,1.415,0,0,0,57.453-4a.8.8,0,0,0-.473.132.4.4,0,0,0-.187.341.4.4,0,0,0,.187.38,2.964,2.964,0,0,0,.638.27q.187.055.242.077a2.058,2.058,0,0,1,.858.489,1.119,1.119,0,0,1,.308.819,1.493,1.493,0,0,1-.49,1.139A1.981,1.981,0,0,1,57.134.1Zm4.939-6.8v2.046h1.21v.968h-1.21V0H60.841V-3.685h-.8v-.968h.8V-6.7Zm2.035,4.323a2.454,2.454,0,0,1,.335-1.265,2.376,2.376,0,0,1,.93-.9,2.776,2.776,0,0,1,1.353-.325,2.744,2.744,0,0,1,1.348.325,2.282,2.282,0,0,1,.908.891,2.544,2.544,0,0,1,.319,1.27,2.544,2.544,0,0,1-.319,1.271,2.319,2.319,0,0,1-.908.9,2.73,2.73,0,0,1-1.359.33,2.915,2.915,0,0,1-1.342-.3,2.238,2.238,0,0,1-.93-.869A2.553,2.553,0,0,1,64.108-2.376Zm1.243.011a1.5,1.5,0,0,0,.385,1.051,1.241,1.241,0,0,0,.957.423,1.256,1.256,0,0,0,.974-.418,1.511,1.511,0,0,0,.379-1.056,1.531,1.531,0,0,0-.379-1.062,1.248,1.248,0,0,0-.974-.423,1.227,1.227,0,0,0-.957.434A1.529,1.529,0,0,0,65.351-2.365ZM75.636-4.653V.022a2.073,2.073,0,0,1-.347,1.171,2.381,2.381,0,0,1-.968.825,3.163,3.163,0,0,1-1.4.3,2.985,2.985,0,0,1-1.265-.236A4.429,4.429,0,0,1,70.631,1.4L71.357.55a3.049,3.049,0,0,0,.715.512,1.82,1.82,0,0,0,.825.181A1.659,1.659,0,0,0,73.986.908,1.145,1.145,0,0,0,74.4,0V-.781a1.742,1.742,0,0,1-.72.655,2.4,2.4,0,0,1-1.117.247A2.24,2.24,0,0,1,71.39-.2a2.385,2.385,0,0,1-.858-.891,2.522,2.522,0,0,1-.319-1.26,2.5,2.5,0,0,1,.336-1.281,2.446,2.446,0,0,1,.891-.9,2.307,2.307,0,0,1,1.183-.325,2.686,2.686,0,0,1,1.062.2,1.682,1.682,0,0,1,.72.534l.1-.528ZM72.93-.891a1.62,1.62,0,0,0,.929-.264A1.377,1.377,0,0,0,74.4-1.87V-2.882a1.372,1.372,0,0,0-.55-.7,1.627,1.627,0,0,0-.924-.264,1.446,1.446,0,0,0-1.05.412,1.4,1.4,0,0,0-.424,1.051,1.484,1.484,0,0,0,.2.759,1.475,1.475,0,0,0,.534.539A1.434,1.434,0,0,0,72.93-.891Zm5.6-2.684a2.182,2.182,0,0,1,.528-.671,2.817,2.817,0,0,1,.7-.457,1.539,1.539,0,0,1,.6-.159L80.3-3.63a1.515,1.515,0,0,0-.9.182,1.6,1.6,0,0,0-.616.616,1.666,1.666,0,0,0-.22.831V0H77.33V-4.653h1.111Zm7.832-1.078V0H85.129V-.671a2.573,2.573,0,0,1-.682.545,1.968,1.968,0,0,1-1,.247,2.516,2.516,0,0,1-1.2-.281,2.048,2.048,0,0,1-.836-.831A2.686,2.686,0,0,1,81.1-2.321a2.719,2.719,0,0,1,.319-1.337,2.294,2.294,0,0,1,.853-.891,2.27,2.27,0,0,1,1.172-.313,1.9,1.9,0,0,1,1.694.836l.088-.627ZM83.787-.891a1.385,1.385,0,0,0,.852-.258,1.377,1.377,0,0,0,.49-.732V-2.893a1.286,1.286,0,0,0-.511-.693,1.494,1.494,0,0,0-.875-.264,1.338,1.338,0,0,0-.99.412,1.433,1.433,0,0,0-.407,1.051,1.484,1.484,0,0,0,.2.759,1.489,1.489,0,0,0,.528.539A1.365,1.365,0,0,0,83.787-.891ZM94.105-4.862a1.5,1.5,0,0,1,1.083.385,1.411,1.411,0,0,1,.424,1.012V0H94.391V-2.992a1.113,1.113,0,0,0-.165-.577.589.589,0,0,0-.473-.226,1.075,1.075,0,0,0-.924.512,2.116,2.116,0,0,0-.363,1.194V0H91.223V-2.992a1.09,1.09,0,0,0-.17-.572.61.61,0,0,0-.49-.231.992.992,0,0,0-.66.242,1.6,1.6,0,0,0-.445.638,2.188,2.188,0,0,0-.16.825V0H88.066V-4.653h1.111l.1.814a1.882,1.882,0,0,1,.715-.759,2.009,2.009,0,0,1,1.034-.264,1.687,1.687,0,0,1,.94.247,1.167,1.167,0,0,1,.5.71,2.081,2.081,0,0,1,.726-.7A1.807,1.807,0,0,1,94.105-4.862Z" transform="translate(7432 493)" fill="#fff"/>
  </g>
</svg>
