<svg xmlns="http://www.w3.org/2000/svg" width="19.472" height="19.475" viewBox="0 0 19.472 19.475">
  <g id="arrow-refresh-transfer-user_interface-interface" data-name="arrow-refresh-transfer-user interface-interface" transform="translate(-4 -3.995)">
    <path id="Path_29" data-name="Path 29" d="M23.127,33.333a1.016,1.016,0,0,0-.768-.356h-.04a1.054,1.054,0,0,0-1.031.91,7.529,7.529,0,0,1-5.552,6.147,7.672,7.672,0,0,1-8.273-3.025.348.348,0,0,1,.286-.546H9.563a.7.7,0,1,0,0-1.391H4v5.563a.7.7,0,0,0,1.391,0V38.778a.348.348,0,0,1,.623-.211,9.736,9.736,0,0,0,17.342-4.423,1.008,1.008,0,0,0-.229-.811Z" transform="translate(0 -18.904)" fill="#81a3cc"/>
    <path id="Path_30" data-name="Path 30" d="M18.116,11.3H23.68V5.735a.7.7,0,0,0-1.391,0V7.592a.348.348,0,0,1-.623.211A9.736,9.736,0,0,0,4.33,12.179a1.044,1.044,0,1,0,2.064.307A7.647,7.647,0,0,1,20.217,9.362a.348.348,0,0,1-.286.546H18.116a.7.7,0,1,0,0,1.391Z" transform="translate(-0.207 0)" fill="#81a3cc"/>
  </g>
</svg>
