<svg xmlns="http://www.w3.org/2000/svg" width="19" height="19" viewBox="0 0 19 19">
  <g id="pentool-ic" transform="translate(0 0)">
    <g id="Group_426" data-name="Group 426" transform="translate(10.65)">
      <g id="Group_370" data-name="Group 370">
        <path id="Path_1785" data-name="Path 1785" d="M295.181,4.889,290.456.163a.557.557,0,0,0-.787,0l-2.511,2.511a.557.557,0,0,0,0,.787l4.725,4.725a.557.557,0,0,0,.787,0l2.511-2.511a.557.557,0,0,0,0-.786Z" transform="translate(-286.994)" fill="#3ee3be"/>
      </g>
    </g>
    <g id="Group_427" data-name="Group 427" transform="translate(0 4.227)">
      <g id="Group_372" data-name="Group 372">
        <path id="Path_1786" data-name="Path 1786" d="M14.751,118.641l-4.725-4.725c-.007-.007-.012-.015-.018-.022l-5.327,2.663a.558.558,0,0,0-.268.291L0,127.879l6.768-6.768A1.651,1.651,0,0,1,6.6,120.4a1.671,1.671,0,1,1,1.671,1.671,1.651,1.651,0,0,1-.716-.167L.787,128.666l11.032-4.412a.557.557,0,0,0,.292-.268l2.663-5.327C14.767,118.652,14.758,118.648,14.751,118.641Z" transform="translate(0 -113.893)" fill="#3ee3be"/>
      </g>
    </g>
    <g id="Group_428" data-name="Group 428" transform="translate(7.715 10.172)">
      <g id="Group_374" data-name="Group 374">
        <path id="Path_1787" data-name="Path 1787" d="M208.431,274.114a.557.557,0,1,0,.557.557A.557.557,0,0,0,208.431,274.114Z" transform="translate(-207.874 -274.114)" fill="#3ee3be"/>
      </g>
    </g>
  </g>
</svg>
