<svg xmlns="http://www.w3.org/2000/svg" width="19.058" height="18.944" viewBox="0 0 19.058 18.944">
  <g id="point-ic" transform="translate(0.028 -0.028)">
    <circle id="Ellipse_83" data-name="Ellipse 83" cx="3.555" cy="3.555" r="3.555" transform="translate(6.094 6.094)" fill="#3ee3be"/>
    <path id="Path_1814" data-name="Path 1814" d="M18.209,8.708h-.832a7.929,7.929,0,0,0-7.085-7.085V.792a.792.792,0,0,0-1.583,0v.832A7.929,7.929,0,0,0,1.624,8.708H.792a.792.792,0,1,0,0,1.583h.832a7.93,7.93,0,0,0,7.085,7.085v.832a.792.792,0,0,0,1.583,0v-.832a7.93,7.93,0,0,0,7.085-7.085h.832a.792.792,0,1,0,0-1.583ZM10.281,15.78a.782.782,0,0,0-1.561,0,6.339,6.339,0,0,1-5.5-5.5.782.782,0,0,0,0-1.562,6.339,6.339,0,0,1,5.5-5.5.782.782,0,0,0,1.562,0,6.339,6.339,0,0,1,5.5,5.5.782.782,0,0,0,0,1.562A6.341,6.341,0,0,1,10.281,15.78Z" fill="#3ee3be"/>
  </g>
</svg>
